<?xml version="1.0" encoding="UTF-8"?>
<svg id="uuid-9aa53bc8-0f02-4f1c-8cdf-1f77c60e894a" data-name="Layer 1" xmlns="http://www.w3.org/2000/svg" viewBox="0 0 512 512">
  <path d="m12.61,506c-1.32,0-2.43-.43-3.31-1.32-.89-.88-1.32-1.99-1.32-3.31v-17.86c0-1.32.43-2.42,1.32-3.31.88-.88,1.98-1.32,3.31-1.32h39.68c.43-2.64,1.65-4.96,3.64-6.94s4.3-2.98,6.95-2.98v-150.13H29.15c-3.53,0-6.51-1.21-8.93-3.64-2.43-2.42-3.64-5.39-3.64-8.93V83.38c0-3.52,1.21-6.5,3.64-8.93s5.39-3.64,8.93-3.64h64.15l-7.27-15.21h-37.7v-25.79c0-6.61,2.32-12.12,6.95-16.53,4.63-4.4,10.02-6.61,16.2-6.61h39.02c6.61,0,12.12,2.21,16.53,6.61,4.4,4.41,6.61,9.92,6.61,16.53v25.79h-28.44l7.28,15.21h134.92v-15.21h-33.73v-25.79c0-6.61,2.2-12.12,6.61-16.53s9.92-6.61,16.53-6.61h39.02c6.17,0,11.58,2.21,16.2,6.61,4.63,4.41,6.95,9.92,6.95,16.53v25.79h-34.39v15.21h134.92l7.27-15.87h-28.44v-25.79c0-6.17,2.31-11.58,6.94-16.2,4.63-4.63,10.02-6.95,16.2-6.95h39.02c6.61,0,12.24,2.32,16.87,6.95,4.63,4.63,6.94,10.03,6.94,16.2v25.79h-38.36l-7.28,15.87h64.15c3.52,0,6.5,1.22,8.93,3.64,2.42,2.43,3.64,5.4,3.64,8.93v222.88c0,3.53-1.22,6.51-3.64,8.93-2.43,2.43-5.41,3.64-8.93,3.64h-33.07v150.13c2.64,0,4.96.99,6.94,2.98s2.98,4.3,2.98,6.94h39.68c1.32,0,2.42.44,3.31,1.32.88.89,1.32,1.99,1.32,3.31v17.86c0,1.32-.44,2.43-1.32,3.31-.89.89-1.98,1.32-3.31,1.32H12.61Zm21.16-212.3v7.94h444.44v-7.94H33.78Zm85.32,25.13v150.13c3.08,0,5.51.99,7.28,2.98,1.76,1.99,2.86,4.3,3.31,6.94h87.96c0-2.64.99-4.96,2.98-6.94s4.3-2.98,6.95-2.98h.66v-150.13h-109.13Zm104.5-99.87l6.61,20.5h22.49l-33.07-92.59h-24.47l-33.73,92.59h22.49l6.61-20.5h33.07Zm-28.44-15.87l9.92-31.75c.43-1.32.76-2.65.99-3.97.22-1.32.33-2.65.33-3.97h.66c.43,1.32.76,2.76.99,4.3.22,1.55.55,2.98.99,4.3l9.92,31.08h-23.81Zm69.44-56.22v92.59h33.07c1.76,0,3.52-.1,5.29-.33,1.76-.22,3.52-.33,5.29-.33h-.66c1.76-.43,3.52-.88,5.29-1.32,1.76-.43,3.31-.88,4.63-1.32,1.32-.43,2.75-.99,4.3-1.65,1.54-.66,2.98-1.43,4.3-2.32h-.66c1.76-.88,3.19-1.76,4.3-2.64,1.1-.88,2.32-1.98,3.64-3.31,1.76-1.76,3.52-3.97,5.29-6.61,1.76-2.65,3.31-5.29,4.63-7.94.43-1.32.88-2.75,1.32-4.3.43-1.54.88-3.19,1.32-4.96,0-1.76.1-3.41.33-4.96.22-1.54.33-3.19.33-4.96v-.66c0-1.76-.11-3.52-.33-5.29-.23-1.76-.33-3.52-.33-5.29-.44-1.76-.89-3.41-1.32-4.96-.44-1.54-.89-2.98-1.32-4.3-.44-1.32-.99-2.65-1.65-3.97-.66-1.32-1.44-2.65-2.32-3.97v.66c-.44-1.32-1.11-2.53-1.98-3.64-.89-1.1-1.98-2.09-3.31-2.98-.89-.88-1.88-1.76-2.98-2.65-1.11-.88-2.32-1.54-3.64-1.98-1.32-.88-2.64-1.65-3.97-2.32-1.32-.66-2.87-1.21-4.63-1.65-1.32-.43-2.87-.76-4.63-.99-1.77-.22-3.53-.55-5.29-.99-1.77,0-3.64-.1-5.62-.33-1.99-.22-3.87-.33-5.62-.33h-33.07Zm19.84,171.96v150.13c2.65,0,4.96.99,6.95,2.98,1.98,1.99,3.19,4.3,3.64,6.94h87.3c.43-2.64,1.65-4.96,3.64-6.94s4.3-2.98,6.94-2.98v-150.13h-108.46Zm.66-96.56v-58.2h10.58c2.2,0,4.3.11,6.28.33,1.98.23,4.07.77,6.28,1.65h-.66c3.52.89,6.61,2.64,9.26,5.29,2.64,2.65,4.63,5.52,5.95,8.6v.66c.43,1.77.88,3.53,1.32,5.29.43,1.77.66,3.75.66,5.95v.66c0,2.21-.23,4.41-.66,6.61-.44,2.21-.89,4.2-1.32,5.95-.89,1.77-1.77,3.42-2.65,4.96-.89,1.55-1.98,2.98-3.31,4.3s-2.76,2.54-4.3,3.64c-1.55,1.11-3.2,1.88-4.96,2.32-1.77.89-3.64,1.44-5.62,1.65-1.98.23-3.87.33-5.62.33h-11.24Z" fill="#010101"/>
</svg>