<?xml version="1.0" encoding="UTF-8"?>
<svg id="uuid-f295e38d-9809-47fc-a5db-65fb54f23496" data-name="Layer 1" xmlns="http://www.w3.org/2000/svg" viewBox="0 0 512 512">
  <path d="m383.37,154.44c-1.05,0-1.58.71-1.58,2.1,0,2.1.69,3.15,2.1,3.15,1.39.36,2.1-.52,2.1-2.62,0-1.74-.87-2.63-2.62-2.63Z" fill="#010101"/>
  <path d="m434.73,147.11c1.05,0,1.57-.87,1.57-2.62s-.71-2.63-2.1-2.63c-1.05,0-1.57.71-1.57,2.1,0,2.1.69,3.15,2.1,3.15Z" fill="#010101"/>
  <path d="m383.88,140.81c1.39,0,2.1-.69,2.1-2.08.34-2.44-.53-3.68-2.62-3.68-1.05,0-1.58.89-1.58,2.63-.36,2.1.36,3.13,2.1,3.13Z" fill="#010101"/>
  <path d="m391.75,160.21c1.05,0,1.57-.69,1.57-2.08,0-2.1-.69-3.15-2.1-3.15s-2.08.87-2.08,2.62.85,2.62,2.62,2.62Z" fill="#010101"/>
  <path d="m383.88,144.5c-1.41,0-2.1.87-2.1,2.62,0,2.1.69,3.15,2.1,3.15s2.1-.87,2.1-2.63c0-2.08-.71-3.13-2.1-3.13Z" fill="#010101"/>
  <path d="m391.75,151.31c1.05,0,1.57-.87,1.57-2.63,0-2.08-.69-3.13-2.1-3.13s-2.08.87-2.08,2.62c0,2.1.85,3.15,2.62,3.15Z" fill="#010101"/>
  <path d="m360.29,141.86c-1.39.36-2.08,1.23-2.08,2.63-.36,2.1.34,3.13,2.08,3.13,1.41,0,2.1-.85,2.1-2.62,0-2.1-.69-3.15-2.1-3.15Z" fill="#010101"/>
  <path d="m391.75,141.86c1.05,0,1.57-.85,1.57-2.62,0-2.1-.69-3.15-2.1-3.15s-2.08.89-2.08,2.63c0,2.08.85,3.13,2.62,3.13Z" fill="#010101"/>
  <path d="m360.29,138.2c1.41,0,2.1-.87,2.1-2.62,0-2.44-.87-3.49-2.62-3.15-1.41,0-2.1.87-2.1,2.62,0,2.1.87,3.15,2.62,3.15Z" fill="#010101"/>
  <path d="m368.69,138.73c1.39,0,2.1-.69,2.1-2.1,0-2.1-.89-3.15-2.63-3.15-1.39,0-2.1.71-2.1,2.1,0,2.1.87,3.15,2.63,3.15Z" fill="#010101"/>
  <path d="m376.55,158.64c1.03,0,1.57-.69,1.57-2.1,0-2.1-.71-3.13-2.1-3.13s-2.1.87-2.1,2.62.87,2.62,2.63,2.62Z" fill="#010101"/>
  <path d="m376.02,149.21c1.39,0,2.1-.69,2.1-2.1,0-2.1-.71-3.15-2.1-3.15s-2.1.71-2.1,2.1c0,2.1.69,3.15,2.1,3.15Z" fill="#010101"/>
  <path d="m368.69,148.68c1.39,0,2.1-.85,2.1-2.62-.36-2.1-1.23-3.15-2.63-3.15s-2.1.89-2.1,2.63c0,2.08.87,3.13,2.63,3.13Z" fill="#010101"/>
  <path d="m434.73,164.94c1.05,0,1.57-.87,1.57-2.63v-1.05c-.36-1.05-1.05-1.57-2.1-1.57-.71,0-1.23.71-1.57,2.1v1.05c.34,1.41,1.05,2.1,2.1,2.1Z" fill="#010101"/>
  <path d="m420.57,163.36c1.39,0,2.1-.69,2.1-2.1,0-2.08-.71-3.13-2.1-3.13s-2.1.87-2.1,2.62.69,2.62,2.1,2.62Z" fill="#010101"/>
  <path d="m421.1,145.55c1.05,0,1.57-.87,1.57-2.63,0-2.1-.71-3.13-2.1-3.13s-2.1.87-2.1,2.62c0,2.1.87,3.15,2.63,3.15Z" fill="#010101"/>
  <path d="m421.1,154.44c1.05,0,1.57-.85,1.57-2.62s-.71-2.79-2.1-3.15c-1.41,0-2.1.89-2.1,2.63,0,2.1.87,3.13,2.63,3.13Z" fill="#010101"/>
  <path d="m427.92,154.98c1.03,0,1.57-.69,1.57-2.1,0-1.74-.71-2.79-2.1-3.15-1.05,0-1.57.89-1.57,2.63s.69,2.62,2.1,2.62Z" fill="#010101"/>
  <path d="m427.92,163.89c1.03,0,1.57-.69,1.57-2.1.34-2.1-.36-3.15-2.1-3.15-1.05,0-1.57.87-1.57,2.62-.36,1.76.34,2.63,2.1,2.63Z" fill="#010101"/>
  <path d="m434.73,156.03c1.05,0,1.57-.87,1.57-2.62,0-2.1-.71-2.97-2.1-2.63-1.05,0-1.57.71-1.57,2.1,0,2.1.69,3.15,2.1,3.15Z" fill="#010101"/>
  <path d="m427.92,146.06c1.03,0,1.57-.69,1.57-2.1,0-2.44-.71-3.49-2.1-3.15-1.05,0-1.57.89-1.57,2.63s.69,2.62,2.1,2.62Z" fill="#010101"/>
  <path d="m352.45,137.15c1.39,0,2.08-.85,2.08-2.62,0-2.1-.87-3.15-2.62-3.15-1.41,0-2.1.87-2.1,2.62,0,2.1.87,3.15,2.63,3.15Z" fill="#010101"/>
  <path d="m406.42,143.45c1.39,0,2.1-.69,2.1-2.1,0-2.1-.89-3.15-2.63-3.15-1.05,0-1.57.87-1.57,2.62s.69,2.63,2.1,2.63Z" fill="#010101"/>
  <path d="m406.42,152.88c1.39,0,2.1-.87,2.1-2.62s-.89-2.63-2.63-2.63c-1.05,0-1.57.71-1.57,2.1,0,2.1.69,3.15,2.1,3.15Z" fill="#010101"/>
  <path d="m399.08,142.4c1.05,0,1.58-.69,1.58-2.1,0-2.1-.71-3.15-2.1-3.15s-2.1.89-2.1,2.63.87,2.62,2.62,2.62Z" fill="#010101"/>
  <path d="m406.42,161.79c1.39,0,2.1-.69,2.1-2.1,0-2.1-.89-3.15-2.63-3.15-1.05,0-1.57.87-1.57,2.63s.69,2.62,2.1,2.62Z" fill="#010101"/>
  <path d="m399.08,151.83c1.05,0,1.58-.87,1.58-2.62s-.71-2.62-2.1-2.62-2.1.87-2.1,2.62c.34,1.74,1.23,2.62,2.62,2.62Z" fill="#010101"/>
  <path d="m413.75,162.84c1.05,0,1.58-.87,1.58-2.63,0-2.08-.71-3.13-2.1-3.13-1.05,0-1.58.87-1.58,2.62,0,2.1.69,3.15,2.1,3.15Z" fill="#010101"/>
  <path d="m398.56,156.03c-1.05,0-1.57.69-1.57,2.1v1.05c0,.69.25,1.23.78,1.57.52.36.96.52,1.3.52,1.05-.34,1.58-1.21,1.58-2.62v-1.05c-.36-1.39-1.05-1.92-2.1-1.57Z" fill="#010101"/>
  <path d="m413.75,153.41c1.05,0,1.58-.71,1.58-2.1,0-2.1-.71-3.15-2.1-3.15-1.05,0-1.58.87-1.58,2.62s.69,2.63,2.1,2.63Z" fill="#010101"/>
  <path d="m413.75,144.5c1.05,0,1.58-.87,1.58-2.63,0-2.08-.71-2.95-2.1-2.62-1.05,0-1.58.71-1.58,2.1,0,2.1.69,3.15,2.1,3.15Z" fill="#010101"/>
  <path d="m376.02,139.78c1.39,0,2.1-.71,2.1-2.1,0-2.44-.71-3.49-2.1-3.15-1.41,0-2.1.71-2.1,2.1,0,2.1.69,3.15,2.1,3.15Z" fill="#010101"/>
  <path d="m263.86,136.63c1.74,0,2.44-.87,2.1-2.63,0-2.08-1.05-3.13-3.15-3.13-1.76,0-2.62.87-2.62,2.62,0,2.1,1.21,3.15,3.66,3.15Z" fill="#010101"/>
  <path d="m253.9,125.1c1.74,0,2.63-.87,2.63-2.63,0-2.44-1.05-3.66-3.15-3.66-1.76,0-2.63,1.05-2.63,3.15s1.05,3.15,3.15,3.15Z" fill="#010101"/>
  <path d="m253.9,135.58c1.74,0,2.63-.87,2.63-2.62,0-2.46-1.05-3.68-3.15-3.68-1.76,0-2.63.89-2.63,2.63,0,2.44,1.05,3.66,3.15,3.66Z" fill="#010101"/>
  <path d="m243.94,124.05c1.76,0,2.63-.87,2.63-2.62,0-2.46-1.05-3.68-3.15-3.68-1.74,0-2.62.89-2.62,2.63,0,2.44,1.05,3.66,3.13,3.66Z" fill="#010101"/>
  <path d="m243.94,134.53c2.1,0,2.97-.87,2.63-2.62,0-2.46-1.05-3.68-3.15-3.68s-2.97,1.05-2.62,3.15c0,2.1,1.05,3.15,3.13,3.15Z" fill="#010101"/>
  <path d="m263.86,126.67c1.74,0,2.62-1.05,2.62-3.15,0-2.44-1.05-3.66-3.13-3.66-1.76,0-2.63,1.05-2.63,3.15s1.05,3.33,3.15,3.66Z" fill="#010101"/>
  <path d="m273.29,127.72c1.74-.34,2.62-1.39,2.62-3.15,0-2.44-1.03-3.66-3.13-3.66-1.76.36-2.63,1.41-2.63,3.15,0,2.44,1.05,3.67,3.15,3.67Z" fill="#010101"/>
  <path d="m273.29,138.2c1.74,0,2.62-1.05,2.62-3.15s-1.03-3.13-3.13-3.13c-1.76,0-2.63.87-2.63,2.62,0,2.1,1.05,3.33,3.15,3.66Z" fill="#010101"/>
  <path d="m233.99,122.47c1.74.36,2.62-.52,2.62-2.62,0-2.44-1.05-3.66-3.15-3.66s-3.13.87-3.13,2.62c0,2.46,1.21,3.66,3.66,3.66Z" fill="#010101"/>
  <path d="m213.02,131.38c2.1,0,3.15-1.05,3.15-3.15,0-2.44-1.23-3.66-3.66-3.66-1.76,0-2.62,1.05-2.62,3.15,0,2.46,1.05,3.66,3.13,3.66Z" fill="#010101"/>
  <path d="m282.72,139.25c1.74,0,2.63-1.05,2.63-3.15s-1.05-3.13-3.15-3.13c-1.74,0-2.62.87-2.62,2.62,0,2.46,1.05,3.66,3.13,3.66Z" fill="#010101"/>
  <path d="m202.54,118.81c1.74,0,2.62-.87,2.62-2.62,0-2.79-1.23-4.2-3.66-4.2-1.74,0-2.62,1.05-2.62,3.15,0,2.46,1.23,3.66,3.66,3.66Z" fill="#010101"/>
  <path d="m213.02,120.39c2.1,0,3.15-1.05,3.15-3.15,0-2.44-1.23-3.66-3.66-3.66-1.76,0-2.62,1.05-2.62,3.13,0,2.46,1.05,3.68,3.13,3.68Z" fill="#010101"/>
  <path d="m233.99,134c1.74,0,2.62-1.03,2.62-3.13,0-2.44-1.05-3.66-3.15-3.66s-3.13.87-3.13,2.62c0,2.44,1.21,3.84,3.66,4.18Z" fill="#010101"/>
  <path d="m223.51,121.44c1.74,0,2.62-.87,2.62-2.63,0-2.44-1.05-3.66-3.15-3.66-1.74,0-2.62.87-2.62,2.62,0,2.46,1.05,3.68,3.15,3.68Z" fill="#010101"/>
  <path d="m223.51,132.43c1.74,0,2.62-.87,2.62-2.62,0-2.44-1.05-3.66-3.15-3.66-1.74,0-2.62.87-2.62,2.62,0,2.46,1.05,3.66,3.15,3.66Z" fill="#010101"/>
  <path d="m335.67,135.05c1.74,0,2.62-.85,2.62-2.62,0-2.1-1.05-3.15-3.15-3.15-1.39,0-2.1.89-2.1,2.63,0,2.08.87,3.13,2.63,3.13Z" fill="#010101"/>
  <path d="m282.72,128.77c1.74,0,2.63-.87,2.63-2.62,0-2.46-1.05-3.68-3.15-3.68-1.74,0-2.62.89-2.62,2.63,0,2.44,1.05,3.66,3.13,3.66Z" fill="#010101"/>
  <path d="m335.67,145.01c1.74,0,2.62-.87,2.62-2.62,0-2.1-.87-3.15-2.62-3.15s-2.63.87-2.63,2.62c0,2.1.87,3.15,2.63,3.15Z" fill="#010101"/>
  <path d="m327.27,143.96c1.41,0,2.1-.87,2.1-2.62,0-2.1-.87-3.15-2.62-3.15-1.41,0-2.1.87-2.1,2.62,0,2.1.87,3.15,2.62,3.15Z" fill="#010101"/>
  <path d="m327.27,134c1.41,0,2.1-.85,2.1-2.62,0-2.1-.87-3.15-2.62-3.15-1.41,0-2.1.89-2.1,2.63,0,2.1.87,3.13,2.62,3.13Z" fill="#010101"/>
  <path d="m344.05,136.1c1.39,0,2.1-.85,2.1-2.62,0-2.1-.87-3.15-2.62-3.15-1.41,0-2.1.89-2.1,2.63,0,2.08.87,3.13,2.62,3.13Z" fill="#010101"/>
  <path d="m352.45,147.11c1.39,0,2.08-1.05,2.08-3.15s-.87-3.15-2.62-3.15c-1.41,0-2.1,1.05-2.1,3.15,0,1.76.87,2.81,2.63,3.15Z" fill="#010101"/>
  <path d="m344.05,146.06c1.39,0,2.1-.87,2.1-2.62,0-2.1-.71-3.15-2.1-3.15-1.74-.34-2.62.36-2.62,2.1,0,2.44.87,3.66,2.62,3.66Z" fill="#010101"/>
  <path d="m318.89,132.97c1.39,0,2.1-.87,2.1-2.63,0-2.44-1.05-3.49-3.15-3.13-1.41,0-2.1.87-2.1,2.62,0,2.1,1.05,3.15,3.15,3.15Z" fill="#010101"/>
  <path d="m292.17,129.82c1.39,0,2.1-1.05,2.1-3.15s-1.05-3.15-3.15-3.15c-1.41,0-2.1.89-2.1,2.63,0,2.44,1.05,3.66,3.15,3.66Z" fill="#010101"/>
  <path d="m292.17,140.3c1.39,0,2.1-1.05,2.1-3.15s-1.05-3.15-3.15-3.15c-1.41,0-2.1.89-2.1,2.63,0,2.44,1.05,3.66,3.15,3.66Z" fill="#010101"/>
  <path d="m301.08,140.81c1.74,0,2.62-.85,2.62-2.62,0-2.1-1.05-3.15-3.15-3.15-1.41,0-2.28.89-2.62,2.63,0,2.1,1.05,3.13,3.15,3.13Z" fill="#010101"/>
  <path d="m309.98,141.86c1.41,0,2.1-.85,2.1-2.62,0-2.1-.87-3.15-2.62-3.15s-2.62.89-2.62,2.63c.34,2.08,1.39,3.13,3.13,3.13Z" fill="#010101"/>
  <path d="m309.98,131.92c1.41,0,2.1-.87,2.1-2.63,0-2.44-.87-3.66-2.62-3.66s-2.62,1.05-2.62,3.15c.34,2.1,1.39,3.15,3.13,3.15Z" fill="#010101"/>
  <path d="m318.89,142.91c1.39,0,2.1-.85,2.1-2.62,0-2.1-.87-3.15-2.62-3.15s-2.63.89-2.63,2.63c0,2.08,1.05,3.13,3.15,3.13Z" fill="#010101"/>
  <path d="m301.08,130.87c1.39,0,2.08-.87,2.08-2.63,0-2.44-1.05-3.66-3.13-3.66-1.41.36-2.1,1.41-2.1,3.15,0,2.1,1.05,3.15,3.15,3.15Z" fill="#010101"/>
  <path d="m96.15,179.6c2.44,0,3.66-1.21,3.66-3.66s-1.23-3.66-3.66-3.66c-2.79,0-4.02,1.05-3.66,3.15,0,2.79,1.21,4.18,3.66,4.18Z" fill="#010101"/>
  <path d="m96.68,367.76c-1.05,0-2.03.44-2.88,1.32-.89.87-1.32,1.83-1.32,2.88,0,2.1,1.05,3.15,3.15,3.15,2.79,0,4.18-1.23,4.18-3.68s-1.05-3.66-3.13-3.66Z" fill="#010101"/>
  <path d="m96.68,404.44c-2.81,0-4.2,1.41-4.2,4.2,0,2.1,1.05,3.15,3.15,3.15,1.05,0,1.99-.44,2.88-1.32.85-.87,1.3-1.83,1.3-2.88,0-2.1-1.05-3.15-3.13-3.15Z" fill="#010101"/>
  <path d="m96.68,379.82c-2.81,0-4.2,1.39-4.2,4.18,0,2.46,1.05,3.68,3.15,3.68,2.79,0,4.18-1.41,4.18-4.2,0-2.44-1.05-3.66-3.13-3.66Z" fill="#010101"/>
  <path d="m96.68,392.4c-2.81,0-4.2,1.41-4.2,4.18,0,2.1,1.05,3.15,3.15,3.15,1.05,0,1.99-.43,2.88-1.3.85-.87,1.3-1.85,1.3-2.88,0-2.1-1.05-3.15-3.13-3.15Z" fill="#010101"/>
  <path d="m96.68,142.91c2.08,0,3.13-1.21,3.13-3.66s-1.39-3.66-4.18-3.66c-2.1,0-3.15,1.05-3.15,3.15,0,1.05.34,2.01,1.05,2.88.69.87,1.74,1.3,3.15,1.3Z" fill="#010101"/>
  <path d="m202.54,130.34c1.74,0,2.62-1.05,2.62-3.13,0-1.05-.34-1.92-1.03-2.63-.71-.69-1.58-1.05-2.63-1.05-1.74,0-2.62,1.05-2.62,3.15,0,2.46,1.23,3.66,3.66,3.66Z" fill="#010101"/>
  <path d="m96.15,167.02c2.44.36,3.66-.69,3.66-3.13s-1.39-3.68-4.18-3.68c-2.1-.34-3.15.71-3.15,3.15-.36,2.46.87,3.66,3.66,3.66Z" fill="#010101"/>
  <path d="m96.68,154.98c2.08,0,3.13-1.05,3.13-3.15,0-2.79-1.39-4.2-4.18-4.2-2.1,0-3.15,1.25-3.15,3.68s1.39,3.66,4.2,3.66Z" fill="#010101"/>
  <path d="m480.33,160.74c1.03,0,1.57-.53,1.57-1.57,0-2.1-.53-3.15-1.57-3.15s-1.58.69-1.58,2.1c0,2.08.53,2.97,1.58,2.62Z" fill="#010101"/>
  <path d="m480.33,178.03c1.03,0,1.57-.69,1.57-2.1,0-2.1-.53-3.15-1.57-3.15-1.05.36-1.58,1.25-1.58,2.63,0,1.74.53,2.62,1.58,2.62Z" fill="#010101"/>
  <path d="m480.33,186.41c1.03,0,1.57-.69,1.57-2.08,0-2.1-.53-2.97-1.57-2.63-1.05,0-1.58.71-1.58,2.1,0,1.76.53,2.62,1.58,2.62Z" fill="#010101"/>
  <path d="m480.33,169.65c1.03,0,1.57-.87,1.57-2.63s-.53-2.62-1.57-2.62c-1.05.36-1.58,1.05-1.58,2.1,0,2.1.53,3.15,1.58,3.15Z" fill="#010101"/>
  <path d="m474.03,151.83c1.05,0,1.57-.69,1.57-2.1.36-1.74-.18-2.62-1.57-2.62s-2.1.71-2.1,2.1c0,1.74.69,2.62,2.1,2.62Z" fill="#010101"/>
  <path d="m96.68,331.07c-2.81,0-4.2,1.23-4.2,3.66-.36,2.46.69,3.68,3.15,3.68,2.79,0,4.36-1.23,4.71-3.68-.36-2.44-1.58-3.66-3.66-3.66Z" fill="#010101"/>
  <path d="m96.68,355.71c-2.81,0-4.2,1.23-4.2,3.66s1.05,3.66,3.15,3.66c2.79,0,4.18-1.39,4.18-4.2,0-2.08-1.05-3.13-3.13-3.13Z" fill="#010101"/>
  <path d="m96.68,343.13c-2.81,0-4.2,1.39-4.2,4.18,0,2.1,1.05,3.15,3.15,3.15,2.79,0,4.18-1.21,4.18-3.66s-1.05-3.66-3.13-3.66Z" fill="#010101"/>
  <path d="m96.15,252.99c2.44,0,3.66-1.23,3.66-3.66s-1.23-3.68-3.66-3.68-3.66,1.23-3.66,3.68c0,2.08,1.21,3.31,3.66,3.66Z" fill="#010101"/>
  <path d="m96.15,277.09c1.05.36,1.92.09,2.62-.78.69-.87,1.05-1.85,1.05-2.88,0-2.46-1.23-3.68-3.66-3.68s-3.66,1.32-3.66,3.93,1.21,3.77,3.66,3.42Z" fill="#010101"/>
  <circle cx="96.15" cy="261.37" r="3.66" fill="#010101"/>
  <path d="m99.81,298.05c0-2.44-1.23-3.66-3.66-3.66s-3.66,1.23-3.66,3.66c0,2.81,1.21,4.02,3.66,3.66,1.05,0,2.01-.34,2.88-1.05.87-.69,1.14-1.57.78-2.62Z" fill="#010101"/>
  <path d="m95.63,326.36c3.13,0,4.54-1.39,4.18-4.2,0-2.1-1.23-3.13-3.66-3.13s-3.66,1.23-3.66,3.66,1.05,3.66,3.15,3.66Z" fill="#010101"/>
  <path d="m96.15,289.67c2.44,0,3.66-1.23,3.66-3.66s-1.23-3.68-3.66-3.68-3.66,1.23-3.66,3.68,1.21,3.66,3.66,3.66Z" fill="#010101"/>
  <path d="m96.68,130.87c2.08,0,3.13-1.23,3.13-3.66,0-2.79-1.39-4.2-4.18-4.2-2.1,0-3.15,1.23-3.15,3.66,0,2.79,1.39,4.2,4.2,4.2Z" fill="#010101"/>
  <path d="m99.81,310.11c0-2.44-1.23-3.68-3.66-3.68s-3.66,1.41-3.66,4.2c0,2.1,1.05,3.15,3.15,3.15,2.79,0,4.18-1.23,4.18-3.66Z" fill="#010101"/>
  <path d="m95.63,184.33c-2.1,0-3.15,1.23-3.15,3.66s1.21,3.66,3.66,3.66c2.79,0,4.02-1.05,3.66-3.15,0-2.79-1.39-4.18-4.18-4.18Z" fill="#010101"/>
  <path d="m96.68,106.23c2.08,0,3.13-1.05,3.13-3.15,0-2.79-1.39-4.18-4.18-4.18-2.1,0-3.15,1.05-3.15,3.15,0,2.79,1.39,4.18,4.2,4.18Z" fill="#010101"/>
  <path d="m99.03,234.38c-.87-.87-1.83-1.32-2.88-1.32-2.46,0-3.66,1.23-3.66,3.68s1.21,3.66,3.66,3.66,3.66-1.05,3.66-3.15c.36-1.05.09-2.01-.78-2.88Z" fill="#010101"/>
  <path d="m96.68,118.29c2.08,0,3.13-1.05,3.13-3.15,0-2.79-1.39-4.2-4.18-4.2-2.1,0-3.15,1.05-3.15,3.15,0,2.79,1.39,4.2,4.2,4.2Z" fill="#010101"/>
  <path d="m96.15,216.3c2.79,0,4.02-1.23,3.66-3.68,0-2.44-1.39-3.66-4.18-3.66-2.1,0-3.15,1.23-3.15,3.66s1.21,3.68,3.66,3.68Z" fill="#010101"/>
  <path d="m96.15,203.72c2.44,0,3.66-1.05,3.66-3.15,0-1.05-.44-2.01-1.3-2.88-.89-.87-1.83-1.32-2.88-1.32-2.1,0-3.15,1.23-3.15,3.66s1.21,3.68,3.66,3.68Z" fill="#010101"/>
  <path d="m96.15,228.35c2.44,0,3.66-1.21,3.66-3.66,0-.69-.36-1.48-1.05-2.37-.69-.85-1.57-1.3-2.62-1.3-2.46,0-3.66,1.23-3.66,3.67s1.21,3.66,3.66,3.66Z" fill="#010101"/>
  <path d="m441.54,147.63c1.39,0,2.08-.69,2.08-2.08,0-2.1-.87-3.15-2.62-3.15-1.05.36-1.57,1.05-1.57,2.1,0,2.1.69,3.13,2.1,3.13Z" fill="#010101"/>
  <path d="m461.45,150.26c1.05,0,1.57-.69,1.57-2.1,0-1.05-.18-1.83-.52-2.37-.36-.52-.87-.78-1.58-.78-1.03.36-1.57,1.23-1.57,2.62,0,1.76.69,2.63,2.1,2.63Z" fill="#010101"/>
  <path d="m455.15,149.21c1.05,0,1.58-.69,1.58-2.1,0-1.74-.71-2.62-2.1-2.62-1.05,0-1.57.69-1.57,2.1,0,1.74.69,2.62,2.08,2.62Z" fill="#010101"/>
  <path d="m461.45,167.55c1.05,0,1.57-.69,1.57-2.1,0-1.74-.69-2.79-2.1-3.15-1.03,0-1.57.89-1.57,2.63s.69,2.62,2.1,2.62Z" fill="#010101"/>
  <path d="m461.45,158.64c1.05,0,1.57-.52,1.57-1.57,0-2.1-.69-3.15-2.1-3.15-1.03,0-1.57.71-1.57,2.1,0,2.1.69,2.97,2.1,2.62Z" fill="#010101"/>
  <path d="m467.73,168.07c1.05.36,1.58-.34,1.58-2.08s-.53-2.79-1.58-3.15c-1.39,0-2.08.87-2.08,2.62s.69,2.62,2.08,2.62Z" fill="#010101"/>
  <path d="m467.73,150.78c1.05,0,1.58-.69,1.58-2.1,0-1.74-.53-2.62-1.58-2.62-.69,0-1.23.18-1.57.53-.36.34-.52.87-.52,1.57,0,1.74.69,2.62,2.08,2.62Z" fill="#010101"/>
  <path d="m467.73,159.69c1.05,0,1.58-.69,1.58-2.1,0-2.1-.53-3.15-1.58-3.15s-1.74.71-2.08,2.1c0,2.1.69,3.15,2.08,3.15Z" fill="#010101"/>
  <path d="m455.15,158.12c.71,0,1.23-.71,1.58-2.1,0-1.39-.53-2.28-1.58-2.62-.34-.36-.87-.27-1.57.25-.69.53-.87,1.49-.52,2.88.34,1.41,1.05,1.92,2.08,1.58Z" fill="#010101"/>
  <path d="m448.36,165.99c1.03,0,1.57-.71,1.57-2.1,0-.69-.18-1.41-.53-2.1-.34-.69-.87-.87-1.57-.53-1.05,0-1.57.71-1.57,2.1,0,2.1.69,2.97,2.1,2.63Z" fill="#010101"/>
  <path d="m441.54,165.45c1.39,0,2.08-.69,2.08-2.1,0-2.1-.69-3.15-2.08-3.15-.71,0-1.25.27-1.58.8-.36.52-.52,1.14-.52,1.83-.36,1.74.34,2.62,2.1,2.62Z" fill="#010101"/>
  <path d="m474.03,160.21c1.05,0,1.57-.69,1.57-2.08.36-1.74-.18-2.63-1.57-2.63-1.41-.34-2.1.36-2.1,2.1s.69,2.62,2.1,2.62Z" fill="#010101"/>
  <path d="m441.54,156.54c1.39,0,2.08-.69,2.08-2.1,0-2.08-.87-3.13-2.62-3.13-1.05,0-1.57.87-1.57,2.62,0,2.1.69,2.97,2.1,2.62Z" fill="#010101"/>
  <path d="m448.36,157.59c1.03,0,1.57-.87,1.57-2.62s-.71-2.62-2.1-2.62c-1.05,0-1.57.87-1.57,2.62s.69,2.62,2.1,2.62Z" fill="#010101"/>
  <path d="m454.64,167.02c1.05,0,1.74-.69,2.1-2.08,0-2.1-.71-3.15-2.1-3.15-1.05,0-1.74.69-2.1,2.1,0,2.1.69,3.13,2.1,3.13Z" fill="#010101"/>
  <path d="m448.36,148.68c1.03,0,1.57-.69,1.57-2.08,0-2.1-.62-3.15-1.83-3.15s-1.83.69-1.83,2.1c0,2.08.69,3.13,2.1,3.13Z" fill="#010101"/>
  <path d="m474.03,331.61c1.05,0,1.57-1.05,1.57-3.15,0-1.39-.52-2.1-1.57-2.1-1.41,0-1.92.87-1.57,2.62,0,1.41.52,2.28,1.57,2.63Z" fill="#010101"/>
  <path d="m474.03,194.28c1.05,0,1.57-.69,1.57-2.08,0-.71-.18-1.41-.52-2.1-.36-.71-.71-.87-1.05-.53-1.41,0-2.1.71-2.1,2.1,0,1.76.69,2.62,2.1,2.62Z" fill="#010101"/>
  <path d="m474.03,185.9c1.05,0,1.57-.69,1.57-2.1,0-2.1-.52-3.15-1.57-3.15-1.41.36-2.1,1.23-2.1,2.63.34,1.74,1.05,2.62,2.1,2.62Z" fill="#010101"/>
  <path d="m474.03,203.19c1.05-.34,1.57-1.21,1.57-2.62,0-.69-.18-1.32-.52-1.83-.36-.53-.71-.78-1.05-.78-1.41.34-2.1,1.23-2.1,2.62,0,1.74.69,2.62,2.1,2.62Z" fill="#010101"/>
  <path d="m474.03,211.57c.69,0,1.23-.69,1.57-2.08,0-1.74-.52-2.63-1.57-2.63-.36-.34-.78-.25-1.32.27-.52.53-.78,1.14-.78,1.83,0,1.76.69,2.62,2.1,2.62Z" fill="#010101"/>
  <path d="m474.03,169.12c1.05,0,1.57-.87,1.57-2.62.36-1.74-.18-2.62-1.57-2.62s-2.1.69-2.1,2.1c0,2.08.69,3.13,2.1,3.13Z" fill="#010101"/>
  <path d="m474.03,223.63c-1.05,0-1.57.71-1.57,2.1-.36,2.1.16,3.15,1.57,3.15,1.05,0,1.57-.87,1.57-2.63.36-1.74-.18-2.62-1.57-2.62Z" fill="#010101"/>
  <path d="m474.03,177.52c1.05,0,1.57-.87,1.57-2.63,0-.69-.18-1.3-.52-1.83-.36-.52-.71-.78-1.05-.78-1.05.36-1.76,1.05-2.1,2.1.34,2.1,1.05,3.15,2.1,3.15Z" fill="#010101"/>
  <path d="m473.76,262.93c1.23,0,1.83-.85,1.83-2.62.36-1.39-.18-2.1-1.57-2.1-1.41-.34-2.1.36-2.1,2.1s.6,2.62,1.83,2.62Z" fill="#010101"/>
  <path d="m474.03,305.4c1.05,0,1.57-.87,1.57-2.63,0-1.39-.52-2.1-1.57-2.1-1.41,0-2.1.89-2.1,2.63.34,1.39,1.05,2.1,2.1,2.1Z" fill="#010101"/>
  <path d="m474.03,271.33c1.05,0,1.57-.78,1.57-2.37s-.52-2.35-1.57-2.35-1.76.69-2.1,2.08c0,1.76.69,2.63,2.1,2.63Z" fill="#010101"/>
  <path d="m473.76,237.26c1.23,0,1.83-.78,1.83-2.37s-.6-2.35-1.83-2.35-1.83.69-1.83,2.1c0,1.74.6,2.62,1.83,2.62Z" fill="#010101"/>
  <path d="m474.03,297c1.05,0,1.57-.69,1.57-2.1,0-1.74-.6-2.62-1.83-2.62s-1.83.87-1.83,2.62c0,1.41.69,2.1,2.1,2.1Z" fill="#010101"/>
  <path d="m474.03,339.98c1.05,0,1.57-.87,1.57-2.62s-.6-2.63-1.83-2.63-1.83.89-1.83,2.63.69,2.62,2.1,2.62Z" fill="#010101"/>
  <path d="m473.76,245.64c1.23,0,1.83-.69,1.83-2.1.36-1.74-.18-2.62-1.57-2.62s-2.1.71-2.1,2.1c0,1.74.6,2.62,1.83,2.62Z" fill="#010101"/>
  <path d="m472.2,251.94c.18,1.74.78,2.53,1.83,2.35,1.05-.16,1.57-1.05,1.57-2.62s-.52-2.35-1.57-2.35c-1.41,0-2.01.87-1.83,2.62Z" fill="#010101"/>
  <path d="m473.76,219.97c1.23,0,1.83-.78,1.83-2.37s-.52-2.35-1.57-2.35c-1.41-.36-2.1.34-2.1,2.08s.6,2.63,1.83,2.63Z" fill="#010101"/>
  <path d="m434.73,356.23c-.36,0-.8.27-1.32.78s-.78,1.14-.78,1.83c0,1.76.52,2.63,1.57,2.63,1.39,0,2.1-1.05,2.1-3.15.34-1.05-.18-1.74-1.57-2.1Z" fill="#010101"/>
  <path d="m434.73,365.14c-1.41,0-2.1.87-2.1,2.62s.52,2.63,1.57,2.63c1.39,0,2.1-1.05,2.1-3.15,0-1.39-.52-2.1-1.57-2.1Z" fill="#010101"/>
  <path d="m441.54,364.09c-1.41,0-2.1,1.05-2.1,3.15,0,1.39.52,2.1,1.57,2.1.69.34,1.32.18,1.83-.53.53-.69.78-1.39.78-2.1,0-1.39-.69-2.26-2.08-2.62Z" fill="#010101"/>
  <path d="m427.92,357.28c-1.41,0-2.1.87-2.1,2.62s.52,2.63,1.57,2.63c1.39,0,2.1-1.05,2.1-3.15,0-1.74-.53-2.44-1.57-2.1Z" fill="#010101"/>
  <path d="m441.54,355.71c-1.41,0-2.1.87-2.1,2.62,0,1.41.52,2.28,1.57,2.62,1.74,0,2.62-1.05,2.62-3.15,0-1.74-.69-2.44-2.08-2.08Z" fill="#010101"/>
  <path d="m421.1,366.71c-1.76,0-2.63,1.05-2.63,3.15,0,1.41.69,2.1,2.1,2.1s2.1-.87,2.1-2.62-.52-2.63-1.57-2.63Z" fill="#010101"/>
  <path d="m420.57,357.79c-1.41,0-2.1.89-2.1,2.63s.69,2.62,2.1,2.62,2.1-1.05,2.1-3.15c0-1.39-.71-2.1-2.1-2.1Z" fill="#010101"/>
  <path d="m427.92,365.66c-1.41,0-2.1,1.05-2.1,3.15,0,1.41.52,2.1,1.57,2.1,1.39,0,2.1-.87,2.1-2.62,0-1.41-.53-2.28-1.57-2.63Z" fill="#010101"/>
  <path d="m448.36,363.58c-1.41,0-2.1.87-2.1,2.62s.52,2.62,1.57,2.62c1.39,0,2.1-.87,2.1-2.62s-.53-2.62-1.57-2.62Z" fill="#010101"/>
  <path d="m461.45,353.08c-1.41,0-2.1,1.05-2.1,3.15,0,1.41.53,2.1,1.57,2.1,1.41,0,2.1-1.05,2.1-3.15,0-1.05-.52-1.74-1.57-2.1Z" fill="#010101"/>
  <path d="m413.75,358.33c-1.41,0-2.1,1.05-2.1,3.15,0,1.39.53,2.1,1.58,2.1,1.39,0,2.1-.87,2.1-2.63.34-1.74-.2-2.62-1.58-2.62Z" fill="#010101"/>
  <path d="m461.45,361.99c-.71,0-1.23.27-1.57.78-.36.53-.53,1.14-.53,1.83,0,1.76.53,2.63,1.57,2.63,1.41,0,2.1-.87,2.1-2.63,0-1.39-.52-2.26-1.57-2.62Z" fill="#010101"/>
  <path d="m467.73,361.48c-1.39-.36-2.08.52-2.08,2.62,0,1.41.69,2.1,2.08,2.1,1.05,0,1.58-.87,1.58-2.62,0-1.41-.53-2.1-1.58-2.1Z" fill="#010101"/>
  <path d="m448.36,354.66c-1.41,0-2.1,1.05-2.1,3.13,0,1.41.52,2.1,1.57,2.1,1.39,0,2.1-.85,2.1-2.62s-.53-2.62-1.57-2.62Z" fill="#010101"/>
  <path d="m454.64,354.13c-1.05,0-1.57.89-1.57,2.63,0,1.39.52,2.28,1.57,2.62,1.39,0,2.1-1.05,2.1-3.15,0-1.39-.71-2.1-2.1-2.1Z" fill="#010101"/>
  <path d="m455.15,363.04c-.69-.34-1.23-.27-1.57.27-.36.52-.52,1.3-.52,2.35,0,1.41.52,2.1,1.57,2.1.34.36.78.18,1.32-.52.52-.69.78-1.39.78-2.1,0-1.39-.53-2.1-1.58-2.1Z" fill="#010101"/>
  <path d="m383.88,370.91c-1.41,0-2.1,1.05-2.1,3.15,0,1.74.53,2.62,1.58,2.62,1.74,0,2.62-1.05,2.62-3.15,0-1.39-.71-2.26-2.1-2.62Z" fill="#010101"/>
  <path d="m368.69,363.04c-1.76,0-2.63,1.23-2.63,3.66,0,1.41.71,2.1,2.1,2.1,1.74,0,2.63-.87,2.63-2.62,0-2.1-.71-3.15-2.1-3.15Z" fill="#010101"/>
  <path d="m376.55,371.96c-1.76,0-2.63,1.05-2.63,3.15,0,1.74.69,2.62,2.1,2.62s2.1-1.05,2.1-3.15c0-1.74-.53-2.62-1.57-2.62Z" fill="#010101"/>
  <path d="m376.02,362.53c-1.41,0-2.1,1.05-2.1,3.13,0,1.76.69,2.63,2.1,2.63s2.1-1.05,2.1-3.15c0-1.74-.71-2.62-2.1-2.62Z" fill="#010101"/>
  <path d="m360.29,364.09c-1.74-.34-2.62.71-2.62,3.15,0,1.74.87,2.62,2.62,2.62,1.41,0,2.1-1.05,2.1-3.15,0-1.74-.69-2.62-2.1-2.62Z" fill="#010101"/>
  <path d="m360.82,374.05c-1.76,0-2.62.87-2.62,2.62-.36,1.76.34,2.62,2.08,2.62,1.41,0,2.1-.85,2.1-2.62s-.52-2.62-1.57-2.62Z" fill="#010101"/>
  <path d="m368.69,373.01c-1.76-.36-2.63.52-2.63,2.62,0,1.76.71,2.62,2.1,2.62,1.41.36,2.1-.52,2.1-2.62.34-1.74-.18-2.62-1.57-2.62Z" fill="#010101"/>
  <path d="m467.48,352.83c-1.23.18-1.83,1.14-1.83,2.88,0,1.39.69,2.08,2.08,2.08,1.05,0,1.58-.85,1.58-2.62s-.62-2.53-1.83-2.35Z" fill="#010101"/>
  <path d="m406.42,368.29c-1.41,0-2.1,1.05-2.1,3.13-.36,1.76.18,2.63,1.57,2.63,1.74,0,2.63-1.05,2.63-3.15,0-1.74-.71-2.62-2.1-2.62Z" fill="#010101"/>
  <path d="m413.75,367.76c-1.41,0-2.1.87-2.1,2.63s.53,2.62,1.58,2.62c1.39,0,2.1-.87,2.1-2.62s-.53-2.63-1.58-2.63Z" fill="#010101"/>
  <path d="m406.42,359.38c-1.41-.34-2.1.52-2.1,2.62,0,1.76.52,2.62,1.57,2.62,1.74,0,2.63-.85,2.63-2.62s-.71-2.62-2.1-2.62Z" fill="#010101"/>
  <path d="m399.08,359.89c-1.74,0-2.62,1.05-2.62,3.15,0,1.41.69,2.28,2.1,2.62,1.39,0,2.1-1.05,2.1-3.13.34-1.74-.18-2.63-1.58-2.63Z" fill="#010101"/>
  <path d="m391.75,360.94c-1.76,0-2.62.87-2.62,2.63s.69,2.62,2.08,2.62,2.1-.87,2.1-2.62-.52-2.63-1.57-2.63Z" fill="#010101"/>
  <path d="m391.75,370.39c-1.76,0-2.62.87-2.62,2.62s.69,2.62,2.08,2.62,2.1-1.05,2.1-3.15c0-1.39-.52-2.08-1.57-2.08Z" fill="#010101"/>
  <path d="m399.08,369.34c-1.74,0-2.62.87-2.62,2.62s.69,2.62,2.1,2.62c1.39.36,2.1-.52,2.1-2.62.34-1.74-.18-2.62-1.58-2.62Z" fill="#010101"/>
  <path d="m383.88,361.48c-1.41,0-2.1,1.05-2.1,3.13,0,1.76.69,2.63,2.1,2.63s2.1-1.05,2.1-3.15c0-1.74-.71-2.62-2.1-2.62Z" fill="#010101"/>
  <path d="m480.33,258.22c-1.05,0-1.58.89-1.58,2.63,0,.69.18,1.23.53,1.57.34.36.69.52,1.05.52,1.03-.34,1.57-1.05,1.57-2.08s-.18-1.74-.53-2.1c-.34-.36-.69-.53-1.03-.53Z" fill="#010101"/>
  <path d="m480.33,292.02c-1.05.2-1.58.8-1.58,1.85,0,2.08.53,2.97,1.58,2.62,1.03,0,1.57-.78,1.57-2.37s-.53-2.26-1.57-2.1Z" fill="#010101"/>
  <path d="m480.33,249.32c-1.05,0-1.58.87-1.58,2.62s.53,2.62,1.58,2.62,1.57-.87,1.57-2.62c0-1.39-.53-2.28-1.57-2.62Z" fill="#010101"/>
  <path d="m480.33,240.92c-1.05,0-1.58.87-1.58,2.62,0,1.41.53,2.1,1.58,2.1,1.03.36,1.57-.34,1.57-2.1s-.53-2.62-1.57-2.62Z" fill="#010101"/>
  <path d="m480.33,274.99c-1.05,0-1.58.87-1.58,2.62-.36,1.41.09,2.1,1.32,2.1s1.83-.78,1.83-2.35-.53-2.37-1.57-2.37Z" fill="#010101"/>
  <path d="m480.33,283.37c-1.05,0-1.58.89-1.58,2.63-.36,1.39.09,2.17,1.32,2.35,1.21.18,1.83-.6,1.83-2.35,0-1.41-.53-2.28-1.57-2.63Z" fill="#010101"/>
  <path d="m480.33,232.54c-1.05,0-1.58.78-1.58,2.35s.53,2.37,1.58,2.37,1.57-.69,1.57-2.1c0-1.74-.53-2.62-1.57-2.62Z" fill="#010101"/>
  <path d="m480.33,266.08c-1.05,0-1.58.87-1.58,2.62-.36,1.76.09,2.63,1.32,2.63s1.83-.87,1.83-2.63-.53-2.62-1.57-2.62Z" fill="#010101"/>
  <path d="m352.45,365.14c-1.76,0-2.63,1.05-2.63,3.15,0,1.74.69,2.62,2.1,2.62,1.74,0,2.62-1.23,2.62-3.66,0-1.39-.69-2.1-2.08-2.1Z" fill="#010101"/>
  <path d="m480.33,147.63c-1.05-.34-1.58.36-1.58,2.1s.53,2.63,1.58,2.63,1.57-.71,1.57-2.1c.34-1.74-.18-2.63-1.57-2.63Z" fill="#010101"/>
  <path d="m480.33,190.1c-1.05,0-1.58.69-1.58,2.1,0,1.74.53,2.62,1.58,2.62.34.36.69.27,1.03-.27.36-.52.53-1.12.53-1.83.34-1.74-.18-2.62-1.57-2.62Z" fill="#010101"/>
  <path d="m480.33,224.15c-1.05,0-1.58.8-1.58,2.37s.53,2.37,1.58,2.37c1.03.34,1.57-.53,1.57-2.63-.36-1.39-.87-2.1-1.57-2.1Z" fill="#010101"/>
  <path d="m504.43,130.34c-2.1-.34-5.25-.87-9.45-1.57-4.18-.69-7.51-1.23-9.95-1.57-11.53-1.74-19.57-2.97-24.12-3.68-2.44-.34-6.37-.85-11.78-1.57-5.43-.69-9.54-1.39-12.33-2.1-2.79-.34-6.81-.87-12.04-1.57-5.25-.69-9.27-1.23-12.06-1.58-2.44-.34-6.12-.85-10.99-1.57-4.91-.69-8.58-1.23-11.01-1.57-2.46-.36-6.12-.96-11.01-1.83s-8.38-1.49-10.48-1.85c-3.15-.34-7.33-.85-12.58-1.57-5.23-.69-9.09-1.23-11.53-1.57-11.88-1.74-20.62-3.15-26.21-4.2-2.79-.34-7.17-.96-13.09-1.83-5.96-.87-10.32-1.48-13.11-1.83s-7.17-.96-13.09-1.83c-5.94-.87-10.32-1.49-13.11-1.83-2.44-.36-6.37-.96-11.8-1.85-5.41-.85-9.52-1.48-12.31-1.83-2.79-.34-6.81-.94-12.04-1.83-5.25-.87-9.09-1.48-11.53-1.83-2.46-.34-6.39-.87-11.8-1.57-5.43-.69-9.7-1.41-12.85-2.1-2.46-.34-6.39-.87-11.8-1.57-5.43-.71-9.36-1.23-11.8-1.58-2.79-.34-6.9-.96-12.31-1.83-5.43-.87-9.36-1.48-11.8-1.83-11.53-1.74-19.57-2.97-24.11-3.66-2.79-.36-7.17-.96-13.09-1.83-5.96-.87-10.32-1.49-13.11-1.83-5.94-.71-14.86-1.92-26.72-3.68-.71-.34-1.76-.34-3.15,0-7.69,3.15-17.29,7.86-28.82,14.16-11.53,6.28-21.33,10.99-29.36,14.14-1.41.36-2.1,1.23-2.1,2.62v315.52c0,1.05.34,1.74,1.05,2.1,8.38,3.13,18.52,8.11,30.4,14.93,11.87,6.81,21.83,11.97,29.87,15.46.34.36.87.53,1.57.53,1.05-.36,2.62-.6,4.71-.8,2.1-.16,3.68-.43,4.71-.78,2.79-.34,6.81-.87,12.06-1.57,5.25-.69,9.25-1.23,12.06-1.58,2.44-.34,6.1-.94,10.99-1.83,4.89-.85,8.56-1.48,11.01-1.83,2.79-.34,7.15-.96,13.09-1.83,5.94-.87,10.3-1.48,13.11-1.83,2.79-.34,7.06-.96,12.83-1.83,5.78-.87,10.23-1.48,13.38-1.83,11.53-1.74,20.09-3.15,25.67-4.2,3.15-.34,7.6-.96,13.36-1.83,5.78-.87,10.14-1.48,13.11-1.83,2.97-.34,7.33-.96,13.09-1.83s10.14-1.49,13.11-1.83c2.95-.36,7.24-.96,12.85-1.83,5.59-.87,9.86-1.58,12.83-2.1,2.97-.53,7.35-1.23,13.11-2.1,5.76-.87,10.21-1.48,13.36-1.83,11.53-1.74,19.57-2.97,24.11-3.66,2.44-.36,6.37-.87,11.8-1.58,5.41-.69,9.43-1.3,12.06-1.83,2.62-.52,6.62-1.12,12.04-1.83,5.41-.69,9.43-1.23,12.06-1.57,2.62-.36,6.55-.96,11.78-1.83,5.25-.87,9.27-1.49,12.06-1.85,2.79-.34,6.9-.94,12.31-1.83,5.43-.85,9.36-1.48,11.8-1.83,11.53-1.74,19.57-2.79,24.11-3.15,2.79-.69,7.08-1.39,12.85-2.08,5.76-.69,10.03-1.41,12.85-2.1,12.58-1.74,21.49-2.97,26.72-3.66,1.05,0,1.57-.09,1.57-.27v-126.05c0-54.16.18-94.68.53-121.6v-2.62c0-.69-.53-1.05-1.57-1.05Zm-18.34,15.21v219.6c0,1.74-.71,2.62-2.1,2.62-3.5.36-8.84,1.05-15.99,2.1-7.17,1.05-12.31,1.76-15.46,2.1-3.84.36-9.25.96-16.24,1.83-6.99.87-12.15,1.57-15.46,2.1-3.33.52-8.58,1.23-15.73,2.1-7.17.87-12.67,1.65-16.51,2.35-3.49.36-8.74.98-15.73,1.83-6.99.89-12.22,1.58-15.71,2.1-3.5.53-8.84,1.23-15.99,2.1-7.17.87-12.49,1.65-15.98,2.37-3.15.34-7.95.96-14.41,1.83-6.48.87-11.46,1.48-14.94,1.83-3.5.36-8.82.96-15.99,1.83-7.15.87-12.31,1.65-15.46,2.35-3.84.36-9.25.98-16.24,1.85-6.99.87-12.13,1.57-15.46,2.08-3.33.53-8.56,1.23-15.73,2.1-7.15.87-12.67,1.49-16.51,1.83-3.49.71-8.74,1.49-15.71,2.37-7.01.87-12.24,1.57-15.73,2.1-3.5.52-8.82,1.23-15.99,2.1-7.15.87-12.49,1.48-15.98,1.83-3.15.34-7.95.96-14.41,1.83-6.48.87-11.28,1.49-14.41,1.83-2.1.36-5.07.78-8.91,1.32-3.84.52-6.81.96-8.91,1.3-1.05,0-1.57-.52-1.57-1.57V93.65c0-.69.34-1.05,1.05-1.05,3.13.71,8.02,1.41,14.66,2.1,3.15.36,8.31,1.05,15.46,2.1,7.17,1.05,12.67,1.74,16.51,2.1,3.5.36,8.74,1.05,15.73,2.1,6.99,1.05,12.22,1.74,15.73,2.08,3.49.36,8.82.98,15.98,1.85,7.17.87,12.49,1.65,15.99,2.35,3.15.36,7.93.96,14.41,1.83,6.46.87,11.44,1.49,14.94,1.83,12.92,1.76,23.4,3.15,31.44,4.2,15.37,2.1,26.03,3.5,31.97,4.2,3.15.34,7.95.96,14.41,1.83,6.46.87,11.44,1.49,14.94,1.83,3.49.36,8.82,1.05,15.98,2.1,7.17,1.05,12.33,1.74,15.46,2.1,3.84.34,9.27.96,16.26,1.83,6.97.87,12.13,1.57,15.46,2.08,3.31.53,8.56,1.25,15.71,2.1,7.17.89,12.67,1.67,16.51,2.37,3.15.36,8.04.96,14.68,1.83,6.64.87,11.53,1.49,14.68,1.83,3.84.36,9.52,1.05,17.04,2.1,7.51,1.05,13.18,1.74,17.03,2.1.34.36,1.05.52,2.1.52h2.1c1.05.36,1.39.87,1.05,1.58Z" fill="#010101"/>
  <path d="m480.33,198.47c-1.05,0-1.58.71-1.58,2.1,0,1.74.53,2.79,1.58,3.15,1.03,0,1.57-.87,1.57-2.63.34-1.74-.18-2.62-1.57-2.62Z" fill="#010101"/>
  <path d="m480.33,215.25c-1.05.34-1.58,1.23-1.58,2.62s.53,2.19,1.58,2.35c1.03.2,1.57-.6,1.57-2.35s-.53-2.62-1.57-2.62Z" fill="#010101"/>
  <path d="m480.33,206.85c-1.05,0-1.58.89-1.58,2.63s.53,2.62,1.58,2.62,1.57-.87,1.57-2.62c0-.69-.18-1.32-.53-1.83-.34-.53-.69-.8-1.03-.8Z" fill="#010101"/>
  <path d="m474.03,274.99c-1.41,0-2.1.87-2.1,2.62,0,1.41.69,2.28,2.1,2.63,1.05,0,1.65-.87,1.83-2.63.18-1.74-.44-2.62-1.83-2.62Z" fill="#010101"/>
  <path d="m474.03,309.06c-1.41,0-2.1.87-2.1,2.62s.69,2.62,2.1,2.62c1.05,0,1.57-.85,1.57-2.62.36-1.39-.18-2.26-1.57-2.62Z" fill="#010101"/>
  <path d="m474.03,317.98c-1.41,0-2.1.87-2.1,2.62,0,1.41.69,2.1,2.1,2.1,1.05,0,1.57-.87,1.57-2.63.36-1.39-.18-2.08-1.57-2.08Z" fill="#010101"/>
  <path d="m474.03,283.37c-1.05,0-1.65.89-1.83,2.63-.18,1.74.43,2.62,1.83,2.62,1.05,0,1.57-.87,1.57-2.62.36-1.74-.18-2.63-1.57-2.63Z" fill="#010101"/>
  <path d="m474.03,360.94c-1.41-.34-2.1.53-2.1,2.63,0,.34.18.78.53,1.3.34.53.85.78,1.57.78,1.05,0,1.57-.85,1.57-2.62,0-1.39-.52-2.1-1.57-2.1Z" fill="#010101"/>
  <path d="m474.03,343.65c-1.05,0-1.65.78-1.83,2.37-.18,1.57.27,2.35,1.32,2.35,1.39.36,2.08-.52,2.08-2.62.36-1.39-.18-2.1-1.57-2.1Z" fill="#010101"/>
  <path d="m474.03,352.03c-1.41,0-2.1.89-2.1,2.63s.69,2.62,2.1,2.62c1.05,0,1.57-1.05,1.57-3.15.36-1.39-.18-2.1-1.57-2.1Z" fill="#010101"/>
  <path d="m480.33,351.51c-1.05,0-1.58.87-1.58,2.62,0,1.41.34,2.1,1.05,2.1,1.39.36,2.1-.52,2.1-2.62,0-1.39-.53-2.1-1.57-2.1Z" fill="#010101"/>
  <path d="m480.33,317.44c-1.05,0-1.58.87-1.58,2.62-.36,1.41.18,2.28,1.58,2.63,1.03,0,1.57-.87,1.57-2.63s-.53-2.62-1.57-2.62Z" fill="#010101"/>
  <path d="m480.33,325.84c-.36,0-.71.25-1.05.78-.36.52-.53,1.14-.53,1.83-.36,1.39.09,2.19,1.32,2.35,1.21.18,1.83-.78,1.83-2.88,0-1.39-.53-2.08-1.57-2.08Z" fill="#010101"/>
  <path d="m480.33,309.06c-1.05,0-1.58.69-1.58,2.1-.36,1.74.18,2.62,1.58,2.62,1.03,0,1.57-.87,1.57-2.62,0-1.41-.53-2.1-1.57-2.1Z" fill="#010101"/>
  <path d="m480.33,343.13c-1.05,0-1.58.87-1.58,2.62,0,1.41.53,2.1,1.58,2.1s1.57-.87,1.57-2.63c0-1.39-.53-2.08-1.57-2.08Z" fill="#010101"/>
  <path d="m480.33,300.67c-.36-.34-.71-.25-1.05.27-.36.53-.53,1.14-.53,1.83,0,1.41.53,2.28,1.58,2.63,1.03,0,1.57-.87,1.57-2.63,0-1.39-.53-2.1-1.57-2.1Z" fill="#010101"/>
  <path d="m480.33,334.22c-1.05,0-1.58.87-1.58,2.62,0,1.41.53,2.28,1.58,2.62,1.03,0,1.57-.85,1.57-2.62s-.53-2.62-1.57-2.62Z" fill="#010101"/>
  <path d="m480.33,359.89c-.36,0-.71.27-1.05.78-.36.53-.53,1.14-.53,1.85,0,1.39.53,2.08,1.58,2.08s1.57-.85,1.57-2.62c0-1.39-.53-2.1-1.57-2.1Z" fill="#010101"/>
  <path d="m180.53,383.48c-2.46-.34-3.66.87-3.66,3.66,0,2.1.85,3.15,2.62,3.15,2.44,0,3.66-1.23,3.66-3.66.36-2.1-.52-3.15-2.62-3.15Z" fill="#010101"/>
  <path d="m145.94,398.68c-2.46,0-3.68,1.41-3.68,4.2,0,2.1,1.05,3.15,3.15,3.15,2.44,0,3.66-1.39,3.66-4.2,0-2.1-1.03-3.15-3.13-3.15Z" fill="#010101"/>
  <path d="m133.88,388.2c-2.79,0-4.2,1.41-4.2,4.2,0,2.1,1.23,3.15,3.68,3.15s3.66-1.23,3.66-3.68-1.05-3.66-3.15-3.66Z" fill="#010101"/>
  <path d="m145.94,387.15c-2.81,0-4.2,1.23-4.2,3.66,0,2.1,1.23,3.15,3.66,3.15s3.66-1.21,3.66-3.66c0-2.1-1.03-3.15-3.13-3.15Z" fill="#010101"/>
  <path d="m109.26,390.81c-2.81,0-4.2,1.41-4.2,4.2,0,2.1,1.05,3.15,3.15,3.15,3.13,0,4.54-1.39,4.18-4.2,0-2.1-1.05-3.15-3.13-3.15Z" fill="#010101"/>
  <path d="m109.26,402.88c-2.81,0-4.2,1.41-4.2,4.2,0,2.08,1.05,3.13,3.15,3.13,2.79,0,4.18-1.39,4.18-4.18,0-2.1-1.05-3.15-3.13-3.15Z" fill="#010101"/>
  <path d="m133.88,400.26c-2.46,0-3.84,1.23-4.2,3.67,0,2.1,1.05,3.15,3.15,3.15,2.79.34,4.2-.87,4.2-3.68,0-2.08-1.05-3.13-3.15-3.13Z" fill="#010101"/>
  <path d="m121.84,401.31c-1.05,0-2.03.43-2.9,1.3-.87.87-1.3,1.83-1.3,2.88,0,2.1,1.05,3.15,3.15,3.15,2.79,0,4.18-1.23,4.18-3.66s-1.05-3.66-3.13-3.66Z" fill="#010101"/>
  <path d="m157.99,397.63c-2.79,0-4.18,1.23-4.18,3.68,0,2.08,1.03,3.13,3.13,3.13,2.44,0,3.66-1.21,3.66-3.66,0-2.1-.87-3.15-2.62-3.15Z" fill="#010101"/>
  <path d="m191.54,393.45c-2.46,0-3.68,1.23-3.68,3.66,0,2.1,1.05,3.15,3.15,3.15,2.44,0,3.66-1.23,3.66-3.68,0-2.08-1.05-3.13-3.13-3.13Z" fill="#010101"/>
  <path d="m191.54,117.76c2.08,0,3.13-1.05,3.13-3.13,0-2.46-1.23-3.68-3.66-3.68-2.1,0-3.15.89-3.15,2.63,0,2.79,1.23,4.18,3.68,4.18Z" fill="#010101"/>
  <path d="m191.54,381.92c-2.46,0-3.68,1.23-3.68,3.66,0,2.1.87,3.15,2.63,3.15,2.44.34,3.84-.71,4.18-3.15,0-2.1-1.05-3.33-3.13-3.66Z" fill="#010101"/>
  <path d="m157.99,385.58c-2.79,0-4.18,1.23-4.18,3.67s1.03,3.66,3.13,3.66c2.44,0,3.66-1.39,3.66-4.18.36-2.1-.52-3.15-2.62-3.15Z" fill="#010101"/>
  <path d="m180.53,394.5c-2.46,0-3.66,1.23-3.66,3.66,0,2.1.85,3.15,2.62,3.15,2.44,0,3.66-1.23,3.66-3.68.36-2.08-.52-3.13-2.62-3.13Z" fill="#010101"/>
  <path d="m169,396.06c-2.46,0-3.66,1.41-3.66,4.2,0,1.74,1.05,2.62,3.13,2.62,1.05,0,1.92-.43,2.63-1.32.69-.85,1.05-1.65,1.05-2.35,0-2.44-1.05-3.49-3.15-3.15Z" fill="#010101"/>
  <path d="m169,384.53c-2.46,0-3.66,1.23-3.66,3.66,0,2.1,1.05,3.15,3.13,3.15,2.46,0,3.68-1.23,3.68-3.66,0-2.1-1.05-3.15-3.15-3.15Z" fill="#010101"/>
  <path d="m169,126.67c2.1,0,3.15-1.05,3.15-3.15,0-2.79-1.23-4.18-3.68-4.18-2.08,0-3.13,1.05-3.13,3.13,0,2.81,1.21,4.2,3.66,4.2Z" fill="#010101"/>
  <path d="m169,115.14c2.1,0,3.15-1.05,3.15-3.15,0-2.79-1.23-4.18-3.68-4.18-2.08,0-3.13,1.05-3.13,3.13,0,2.81,1.21,4.2,3.66,4.2Z" fill="#010101"/>
  <path d="m202.54,392.4c-2.44,0-3.66,1.23-3.66,3.66,0,1.76.87,2.62,2.62,2.62,1.05.36,1.92.09,2.63-.78.69-.87,1.03-1.83,1.03-2.88.36-1.74-.52-2.62-2.62-2.62Z" fill="#010101"/>
  <path d="m157.99,125.1c1.74,0,2.62-1.05,2.62-3.15,0-2.79-1.23-4.02-3.66-3.66-2.1,0-3.13,1.05-3.13,3.15,0,2.44,1.39,3.66,4.18,3.66Z" fill="#010101"/>
  <path d="m157.99,113.58c1.74,0,2.62-1.05,2.62-3.15,0-2.79-1.23-4.2-3.66-4.2-2.1,0-3.13,1.05-3.13,3.15,0,2.79,1.39,4.2,4.18,4.2Z" fill="#010101"/>
  <path d="m191.54,128.77c2.08,0,3.13-1.05,3.13-3.15,0-2.44-1.39-3.66-4.18-3.66-1.76,0-2.63,1.05-2.63,3.15,0,2.44,1.23,3.66,3.68,3.66Z" fill="#010101"/>
  <path d="m180.53,127.72c2.1,0,3.15-1.05,3.15-3.15-.36-2.44-1.76-3.66-4.2-3.66-1.76,0-2.62,1.05-2.62,3.15,0,2.44,1.21,3.67,3.66,3.67Z" fill="#010101"/>
  <path d="m109.26,119.86c2.08,0,3.13-1.05,3.13-3.15,0-2.79-1.39-4.18-4.18-4.18-2.1,0-3.15,1.05-3.15,3.13,0,1.05.43,2.03,1.32,2.88.85.89,1.83,1.32,2.88,1.32Z" fill="#010101"/>
  <path d="m180.53,116.19c1.74,0,2.62-1.05,2.62-3.15,0-2.44-1.23-3.67-3.66-3.67-1.76,0-2.62,1.05-2.62,3.15,0,2.44,1.21,3.66,3.66,3.66Z" fill="#010101"/>
  <path d="m120.79,114.09c-2.1,0-3.15,1.05-3.15,3.15,0,2.79,1.39,4.2,4.2,4.2,2.08,0,3.13-1.23,3.13-3.68s-1.39-3.66-4.18-3.66Z" fill="#010101"/>
  <path d="m121.84,109.38c2.08,0,3.13-1.05,3.13-3.15,0-2.79-1.39-4.18-4.18-4.18-2.1,0-3.15,1.03-3.15,3.13-.36,1.05,0,2.03,1.05,2.88,1.05.89,2.1,1.32,3.15,1.32Z" fill="#010101"/>
  <path d="m109.26,107.81c2.08,0,3.13-1.05,3.13-3.15,0-2.79-1.23-4.2-3.66-4.2-2.46-.34-3.66.71-3.66,3.15,0,1.05.43,2.01,1.32,2.88.85.87,1.83,1.32,2.88,1.32Z" fill="#010101"/>
  <path d="m133.88,110.94c2.1,0,3.15-1.21,3.15-3.66s-1.23-3.66-3.66-3.66-3.68,1.05-3.68,3.15c.36,2.79,1.74,4.18,4.2,4.18Z" fill="#010101"/>
  <path d="m145.41,116.71c-2.1,0-3.15,1.05-3.15,3.15,0,2.81,1.23,4.2,3.68,4.2,2.1-.36,3.13-1.39,3.13-3.15,0-2.79-1.23-4.2-3.66-4.2Z" fill="#010101"/>
  <path d="m145.94,111.99c2.1,0,3.13-1.05,3.13-3.13,0-2.46-1.23-3.68-3.66-3.68-2.1-.34-3.15.53-3.15,2.63-.34,2.79.87,4.18,3.68,4.18Z" fill="#010101"/>
  <path d="m133.88,122.47c2.1,0,3.15-1.03,3.15-3.13,0-2.79-1.41-4.2-4.2-4.2-2.1,0-3.15,1.05-3.15,3.15,0,2.79,1.41,4.18,4.2,4.18Z" fill="#010101"/>
  <path d="m335.67,366.71c-1.76,0-2.63,1.05-2.63,3.15,0,1.76.71,2.62,2.1,2.62,2.1,0,3.15-1.05,3.15-3.13,0-1.74-.87-2.63-2.62-2.63Z" fill="#010101"/>
  <path d="m309.98,379.82c-1.74,0-2.62,1.05-2.62,3.15,0,1.74.69,2.62,2.1,2.62,2.1,0,3.15-1.05,3.15-3.15,0-1.74-.89-2.62-2.63-2.62Z" fill="#010101"/>
  <path d="m318.89,378.77c-1.74-.34-2.79.69-3.15,3.15,0,1.74.87,2.62,2.63,2.62s2.62-1.05,2.62-3.15c0-1.74-.71-2.62-2.1-2.62Z" fill="#010101"/>
  <path d="m309.98,369.34c-2.08,0-3.13,1.23-3.13,3.66.34,1.74,1.21,2.62,2.62,2.62,2.1,0,3.15-1.23,3.15-3.66,0-1.74-.89-2.62-2.63-2.62Z" fill="#010101"/>
  <path d="m301.08,370.39c-2.1,0-3.15,1.23-3.15,3.66,0,1.74.87,2.62,2.62,2.62,2.1,0,3.15-1.23,3.15-3.66,0-1.74-.87-2.62-2.62-2.62Z" fill="#010101"/>
  <path d="m292.17,381.92c-2.1,0-3.15,1.05-3.15,3.13s.69,3.15,2.1,3.15c2.1,0,3.15-1.21,3.15-3.66,0-1.74-.71-2.62-2.1-2.62Z" fill="#010101"/>
  <path d="m301.08,380.34c-2.1,0-3.15,1.23-3.15,3.66,0,1.76.87,2.63,2.62,2.63,2.1,0,3.15-1.05,3.15-3.15s-.87-3.15-2.62-3.15Z" fill="#010101"/>
  <path d="m291.64,371.42c-1.74,0-2.62,1.05-2.62,3.15,0,1.76.69,2.81,2.1,3.15,2.1,0,3.15-1.23,3.15-3.66,0-1.74-.89-2.63-2.63-2.63Z" fill="#010101"/>
  <path d="m344.05,375.62c-1.74,0-2.62,1.05-2.62,3.15,0,1.74.69,2.62,2.1,2.62,1.74,0,2.62-1.05,2.62-3.15,0-1.39-.71-2.26-2.1-2.62Z" fill="#010101"/>
  <path d="m352.45,374.57c-1.76,0-2.63,1.05-2.63,3.15,0,1.74.69,2.62,2.1,2.62,1.74.36,2.62-.69,2.62-3.13,0-1.76-.69-2.63-2.08-2.63Z" fill="#010101"/>
  <path d="m282.72,372.47c-2.08,0-3.13,1.05-3.13,3.15s.87,3.15,2.62,3.15c2.1,0,3.15-1.23,3.15-3.66,0-1.74-.89-2.63-2.63-2.63Z" fill="#010101"/>
  <path d="m318.89,368.81c-2.1,0-3.15,1.05-3.15,3.15,0,1.74.87,2.62,2.63,2.62s2.62-1.05,2.62-3.15-.71-2.95-2.1-2.62Z" fill="#010101"/>
  <path d="m344.05,365.66c-1.74,0-2.62,1.05-2.62,3.15,0,1.76.69,2.62,2.1,2.62,1.74,0,2.62-1.03,2.62-3.13,0-1.41-.71-2.28-2.1-2.63Z" fill="#010101"/>
  <path d="m205.15,384c0-2.08-.87-3.13-2.62-3.13-2.44,0-3.66,1.23-3.66,3.66,0,2.1,1.05,3.15,3.15,3.15,2.44,0,3.49-1.23,3.13-3.68Z" fill="#010101"/>
  <path d="m327.27,367.76c-1.74,0-2.62,1.05-2.62,3.15,0,1.74.69,2.62,2.1,2.62,1.74,0,2.62-1.05,2.62-3.13,0-1.76-.69-2.63-2.1-2.63Z" fill="#010101"/>
  <path d="m335.67,376.67c-1.76,0-2.63,1.05-2.63,3.15,0,1.74.87,2.62,2.63,2.62s2.62-1.05,2.62-3.15c0-1.74-.87-2.62-2.62-2.62Z" fill="#010101"/>
  <path d="m327.27,377.72c-1.74,0-2.62,1.05-2.62,3.15,0,1.74.69,2.62,2.1,2.62,1.74,0,2.62-1.05,2.62-3.15,0-1.74-.69-2.62-2.1-2.62Z" fill="#010101"/>
  <path d="m223.51,378.77c-2.1,0-3.15,1.23-3.15,3.66,0,1.76.87,2.62,2.62,2.62,2.1.36,3.15-.69,3.15-3.13,0-2.1-.87-3.15-2.62-3.15Z" fill="#010101"/>
  <path d="m243.94,387.15c-2.44,0-3.49,1.23-3.13,3.66,0,2.1.87,3.15,2.62,3.15,2.1,0,3.15-1.21,3.15-3.66,0-2.1-.87-3.15-2.63-3.15Z" fill="#010101"/>
  <path d="m282.72,382.97c-.69,0-1.39.34-2.08,1.03s-1.05,1.41-1.05,2.1c0,1.76.87,2.63,2.62,2.63,2.1,0,3.15-1.05,3.15-3.15,0-1.74-.89-2.62-2.63-2.62Z" fill="#010101"/>
  <path d="m233.99,388.73c-2.46,0-3.66,1.23-3.66,3.66.34,1.74,1.39,2.62,3.13,2.62,2.1,0,3.15-1.21,3.15-3.66,0-1.74-.87-2.62-2.62-2.62Z" fill="#010101"/>
  <path d="m213.55,390.81c-2.46,0-3.66,1.23-3.66,3.68,0,1.74.85,2.79,2.62,3.13,2.1,0,3.31-1.21,3.66-3.66,0-2.1-.87-3.15-2.62-3.15Z" fill="#010101"/>
  <path d="m213.02,379.82c-2.08,0-3.13,1.23-3.13,3.66-.36,2.1.52,3.15,2.62,3.15,2.44,0,3.66-1.23,3.66-3.66,0-2.1-1.05-3.15-3.15-3.15Z" fill="#010101"/>
  <path d="m223.51,389.76c-2.1,0-3.15,1.23-3.15,3.68,0,1.74.87,2.62,2.62,2.62,2.1,0,3.15-1.23,3.15-3.66,0-1.74-.87-2.63-2.62-2.63Z" fill="#010101"/>
  <path d="m233.99,377.72c-2.46,0-3.66,1.23-3.66,3.66,0,1.76,1.03,2.62,3.13,2.62s3.15-1.21,3.15-3.66c0-1.74-.87-2.62-2.62-2.62Z" fill="#010101"/>
  <path d="m263.86,374.57c-2.1-.34-3.15.71-3.15,3.15,0,2.1.87,3.15,2.63,3.15s2.78-1.23,3.13-3.66c0-1.76-.87-2.63-2.62-2.63Z" fill="#010101"/>
  <path d="m243.94,376.67c-2.08,0-3.13,1.23-3.13,3.66,0,1.76.87,2.63,2.62,2.63,2.1,0,3.15-1.23,3.15-3.68,0-1.74-.87-2.62-2.63-2.62Z" fill="#010101"/>
  <path d="m273.29,373.52c-2.1,0-3.15,1.05-3.15,3.15s.87,3.15,2.63,3.15c2.1,0,3.13-1.23,3.13-3.66,0-1.76-.87-2.63-2.62-2.63Z" fill="#010101"/>
  <path d="m273.29,384c-2.1,0-3.15,1.05-3.15,3.15s.87,3.15,2.63,3.15c2.1,0,3.13-1.23,3.13-3.66,0-1.74-.87-2.63-2.62-2.63Z" fill="#010101"/>
  <path d="m263.86,385.05c-2.1,0-3.15,1.23-3.15,3.68,0,1.74.87,2.62,2.63,2.62,2.08,0,3.13-1.23,3.13-3.66,0-1.74-.87-2.63-2.62-2.63Z" fill="#010101"/>
  <path d="m253.9,386.1c-2.1,0-3.15,1.23-3.15,3.66,0,1.76.87,2.63,2.63,2.63,2.1.36,3.15-.69,3.15-3.15,0-2.1-.89-3.15-2.63-3.15Z" fill="#010101"/>
  <path d="m253.9,375.62c-2.1,0-3.15,1.23-3.15,3.66,0,1.76.87,2.63,2.63,2.63,2.1,0,3.15-1.23,3.15-3.68,0-1.74-.89-2.62-2.63-2.62Z" fill="#010101"/>
  <path d="m323.99,247.04c-1.66-3.37-4.03-5.04-7.12-5.02-3.08.02-5.77,1.59-8.04,4.71-2.28,3.11-3.92,8.28-4.94,15.47-.89,6.33-.58,11.01.93,14.05,1.51,3.04,3.85,4.55,7.01,4.52,3.01,0,5.75-1.61,8.23-4.79,2.49-3.17,4.18-7.94,5.07-14.32.9-6.38.52-11.25-1.14-14.62Zm0,0c-1.66-3.37-4.03-5.04-7.12-5.02-3.08.02-5.77,1.59-8.04,4.71-2.28,3.11-3.92,8.28-4.94,15.47-.89,6.33-.58,11.01.93,14.05,1.51,3.04,3.85,4.55,7.01,4.52,3.01,0,5.75-1.61,8.23-4.79,2.49-3.17,4.18-7.94,5.07-14.32.9-6.38.52-11.25-1.14-14.62ZM108.72,124.52l3.72,260.23,355.04-35.9v-175.07L108.72,124.52Zm145.14,62.29l24.15-.15-3.22,22.84-24.15.15,3.22-22.84Zm-20.45,34.08l-25.63,2.22c.09-5.44-.76-9.39-2.57-11.85-1.81-2.46-4.61-3.68-8.41-3.65-3.12.02-5.61.95-7.45,2.81-1.84,1.85-2.95,4.09-3.32,6.73-.27,1.93.14,3.65,1.23,5.18,1.04,1.59,3.84,3.06,8.39,4.4,11.26,3.44,19.17,6.95,23.75,10.52,4.57,3.57,7.64,8.01,9.21,13.33,1.56,5.31,1.88,11.27.95,17.87-1.09,7.75-3.64,14.91-7.64,21.47-4.01,6.56-9.02,11.55-15.04,14.96-6.01,3.42-13.23,5.16-21.66,5.21-14.79.09-24.48-3.8-29.06-11.68-4.58-7.88-6.39-17.92-5.42-30.12l25.88-2.39c-.26,5.77.25,10.16,1.53,13.17,2.08,4.88,5.69,7.3,10.83,7.27,3.84-.03,6.97-1.3,9.4-3.81s3.88-5.42,4.34-8.72c.44-3.13-.15-5.93-1.78-8.39-1.63-2.46-5.89-4.77-12.78-6.92-11.27-3.61-18.99-8.45-23.15-14.52-4.21-6.07-5.65-13.83-4.32-23.29.88-6.21,3-12.09,6.37-17.63,3.37-5.54,7.87-9.91,13.52-13.1,5.65-3.2,13-4.82,22.06-4.88,11.12-.07,19.19,2.75,24.21,8.45,5.03,5.71,7.21,14.83,6.56,27.36Zm27.58,86.66l-24.15.15,12.33-87.57,24.15-.16-12.33,87.58Zm82.57-5.39l-.48,3.87c-.78,5.5-2.35,10.74-4.74,15.73-2.38,4.98-5.18,9.02-8.4,12.12-3.22,3.1-7.08,5.35-11.56,6.75-4.49,1.4-9.5,2.12-15.04,2.15-12.66.08-20.98-2.5-24.96-7.74-3.99-5.25-5.36-12.3-4.11-21.15.15-1.1.4-2.59.74-4.46l22.92,3.56c.17,3.02.78,5.11,1.85,6.25,1.54,1.7,3.65,2.53,6.34,2.52,3.48-.02,6.27-1.33,8.35-3.93,2.08-2.59,3.58-7.11,4.48-13.54l1.87-13.28c-2.92,3.92-5.69,6.77-8.31,8.54-4.11,2.78-8.32,4.18-12.63,4.2-8.42.06-14.51-5.01-18.25-15.2-2.66-7.24-3.15-16.82-1.47-28.75,1.92-13.63,5.76-24.04,11.51-31.21,5.75-7.18,12.46-10.79,20.14-10.84,4.9-.03,8.79,1.1,11.65,3.38,2.85,2.29,5.29,6.09,7.31,11.41l1.82-12.95,22.61-.14-11.64,82.71Zm88.39-51.32l-7.84,55.66-24.27.16,6.78-48.16c.77-5.5.59-9.38-.55-11.65-1.15-2.27-3.04-3.4-5.69-3.39-2.93.02-5.52,1.58-7.77,4.67-2.26,3.09-3.94,8.62-5.07,16.59l-5.91,42.05-24.15.16,12.32-87.57,22.49-.15-2.01,14.27c4.18-5.85,8.17-10.04,11.97-12.56,3.79-2.52,8.16-3.8,13.1-3.83,6.69-.05,11.53,2.68,14.53,8.18s3.69,14.03,2.07,25.57Zm-115.08-8.82c-3.08.02-5.77,1.59-8.04,4.71-2.28,3.11-3.92,8.28-4.94,15.47-.89,6.33-.58,11.01.93,14.05,1.51,3.04,3.85,4.55,7.01,4.52,3.01,0,5.75-1.61,8.23-4.79,2.49-3.17,4.18-7.94,5.07-14.32.9-6.38.52-11.25-1.14-14.62s-4.03-5.04-7.12-5.02Z" fill="#010101"/>
</svg>