<?xml version="1.0" encoding="UTF-8"?>
<svg id="uuid-381bfcbf-8246-4576-8094-5674e6029a55" data-name="Layer 1" xmlns="http://www.w3.org/2000/svg" viewBox="0 0 512 512">
  <path d="m499.31,324.24l-.43-5.94c2.38-9.49-5.93-52.2-5.93-52.2-.6-9.49-35.59-53.38-35.59-53.38-12.16-17.21-83.64-13.64-83.64-13.64h-27.29v91.04l-265.8,12.44,18.51,8.82,278.88-14.59.14.03v74.27h14.69l1.17-.12c-.3,1.64-.45,3.33-.45,5.05,0,15.85,12.85,28.7,28.7,28.7,13.72,0,25.18-9.61,28.03-22.46.45-2.01.68-4.1.68-6.24,0-3.81-.74-7.45-2.1-10.78l6.71-.7s-.01.02-.01.02c0,0,4.75-.59,29.07-4.74,24.31-4.15,14.66-35.58,14.66-35.58Zm-30.27-48.11s-5.85,1.67-15.9-10.04c0,0-5.86-7.53-18.41-6.7-12.55.84-27.61-.42-27.61-.42l-1.68-42.68h28.46s12.13-2.08,21.33,10.46c9.21,12.56,22.6,27.62,22.6,49.38h-8.79Z"/>
  <path d="m369.34,308.15v72.89l-150.4,14.8c2.05,3.96,3.22,8.45,3.22,13.22,0,15.85-12.85,28.7-28.7,28.7s-28.71-12.85-28.71-28.7c0-2.78.4-5.46,1.14-8l-71.63,7.05v-85.58l275.08-14.38Z"/>
  <path d="m335.23,91.61l1.93,190.36-299.87,18.2-4.14-225.93,302.08,17.37Zm-67.09,119.92c1.83-5,2.74-10.96,2.74-17.87,0-7.87-.97-14.48-2.91-19.85-1.96-5.37-4.79-9.9-8.52-13.61-3.72-3.71-8.2-6.28-13.42-7.73-3.89-1.07-9.54-1.61-16.95-1.61h-32.87v83.99h33.85c6.63,0,11.94-.59,15.91-1.78,5.3-1.6,9.52-3.84,12.63-6.7,4.13-3.78,7.32-8.72,9.54-14.84Zm-81.4,23.32l-35.67-83.99h-19.02l-34.69,83.99h19.08l7.35-19.08h35.6l7.78,19.08h19.57Z"/>
  <path d="m250.46,177.96c1.22,3.48,1.83,8.46,1.83,14.95s-.61,11.63-1.83,15.38c-1.21,3.77-2.78,6.47-4.71,8.11-1.92,1.64-4.34,2.8-7.26,3.5-2.23.53-5.85.8-10.87.8h-13.43v-55.63h8.08c7.34,0,12.26.27,14.77.8,3.35.69,6.14,2.01,8.32,3.95,2.19,1.95,3.89,4.66,5.1,8.14Z"/>
  <polygon points="141.34 170.46 153.62 201.62 129.32 201.62 141.34 170.46"/>
  <polygon points="88.03 324.03 88.03 406.39 74.58 391.26 70.38 315.63 88.03 324.03"/>
  <polygon points="23.92 75.29 28.01 299.12 14.9 288.73 10.8 85.13 23.92 75.29"/>
</svg>