<?xml version="1.0" encoding="UTF-8"?>
<svg id="uuid-886ca61f-c102-4134-bd49-09ef5ed786a6" data-name="Layer 1" xmlns="http://www.w3.org/2000/svg" viewBox="0 0 512 512">
  <path id="uuid-ae0fb795-f9bc-454f-89db-111a9f18316c" data-name="Icon awesome-mobile-alt" d="m365.38,6h-218.75c-25.89,0-46.87,20.99-46.88,46.88v406.25c0,25.89,20.99,46.87,46.88,46.88h218.75c25.89,0,46.87-20.99,46.88-46.88V52.88c0-25.89-20.99-46.87-46.88-46.88Zm-109.38,468.75c-17.26,0-31.25-13.99-31.25-31.25s13.99-31.25,31.25-31.25,31.25,13.99,31.25,31.25c.02,17.24-13.94,31.23-31.18,31.25-.02,0-.04,0-.07,0Zm109.38-105.47c-.02,6.46-5.25,11.7-11.72,11.72h-195.31c-6.46-.02-11.7-5.25-11.72-11.72V64.59c.02-6.46,5.25-11.7,11.72-11.72h195.31c6.46.02,11.7,5.25,11.72,11.72v304.69Z"/>
</svg>