<?xml version="1.0" encoding="UTF-8"?>
<svg id="uuid-0c8259f1-f848-40ec-978d-4a0ee760cd44" data-name="Layer 1" xmlns="http://www.w3.org/2000/svg" viewBox="0 0 512 512">
  <path id="uuid-f5f2a2e3-3393-41b6-a469-dba6dfbe7f75" data-name="Icon awesome-phone-alt" d="m491.74,359.32l-109.38-46.88c-9.6-4.09-20.75-1.34-27.34,6.74l-48.44,59.18c-76.02-35.84-137.2-97.02-173.04-173.04l59.18-48.44c8.1-6.59,10.85-17.75,6.74-27.34l-46.88-109.38c-4.53-10.39-15.81-16.09-26.86-13.57L24.16,30.03c-10.63,2.46-18.17,11.93-18.16,22.84,0,250.49,203.03,453.13,453.13,453.13,10.92,0,20.39-7.53,22.85-18.16l23.44-101.56c2.5-11.1-3.25-22.41-13.68-26.95h0Z"/>
</svg>