<?xml version="1.0" encoding="UTF-8"?>
<svg id="uuid-dfbaf408-96da-42d0-aa3c-841c935c4fed" data-name="Layer 1" xmlns="http://www.w3.org/2000/svg" viewBox="0 0 512 512">
  <path id="uuid-48eacd73-1b79-41fb-96a0-c63e97ac5684" data-name="Icon ionic-logo-whatsapp" d="m260.53,6C124.98,6,15.08,115.04,15.08,249.56c-.06,44.36,12.13,87.88,35.22,125.77L6,506l135.9-43.17c36.36,19.94,77.17,30.36,118.64,30.3,135.57,0,245.47-109.06,245.47-243.56S396.11,6,260.53,6Zm122.06,336.06c-5.77,14.31-31.89,27.38-43.41,27.98-11.51.61-11.84,8.92-74.6-18.34-62.75-27.27-100.5-93.58-103.48-97.85-2.98-4.25-24.31-34.65-23.16-65.24,1.16-30.6,17.91-45.03,23.89-51.03,4.49-4.55,10.61-7.13,17-7.16,4.94-.08,8.14-.15,11.8-.01s9.14-.76,13.9,11.87c4.75,12.64,16.12,43.7,17.57,46.86,1.45,3.16,2.35,6.84.11,10.9-2.25,4.08-3.4,6.62-6.65,10.14-3.28,3.51-6.89,7.86-9.81,10.55-3.26,2.97-6.66,6.22-3.24,12.58,3.43,6.36,15.24,27.18,33.24,44.35,23.13,22.07,43.08,29.39,49.22,32.72,6.15,3.35,9.83,2.98,13.64-1.04,3.8-4.02,16.34-17.57,20.75-23.63,4.41-6.07,8.55-4.88,14.22-2.6,5.67,2.29,35.89,18.48,42.05,21.82,6.16,3.34,10.26,5.05,11.73,7.7,1.47,2.66,1.01,15.1-4.77,29.42Z"/>
</svg>