<?xml version="1.0" encoding="utf-8"?>
<!-- Generator: Adobe Illustrator 27.1.1, SVG Export Plug-In . SVG Version: 6.00 Build 0)  -->
<svg version="1.1" id="Layer_1" xmlns="http://www.w3.org/2000/svg" xmlns:xlink="http://www.w3.org/1999/xlink" x="0px" y="0px"
	 viewBox="0 0 641.6 805.4" style="enable-background:new 0 0 641.6 805.4;" xml:space="preserve">
<style type="text/css">
	.st0{fill:#FFFFFF;}
</style>
<polygon class="st0" points="320.5,573.9 453.1,370.6 587.7,553.1 587.7,332.8 453.1,150.2 320.5,353.5 179.8,150.2 53.9,332.2 
	53.9,552.5 179.8,370.6 "/>
<polygon class="st0" points="320.5,634.5 179.8,431.2 53.9,613.1 53.9,695.1 587.7,695.1 587.7,613.8 453.1,431.2 "/>
<polygon class="st0" points="320.5,292.9 453.1,89.6 587.7,272.2 587.7,39.2 53.9,39.2 53.9,271.6 179.8,89.6 "/>
<path class="st0" d="M641.2,734.3H0.4V0h640.7V734.3z M21.7,713.1h598.2V21.2H21.7V713.1z"/>
<path class="st0" d="M7.3,787v-34.2h6.4l16.1,20.7l15.7-20.7h6.4V787h-7.4v-21.2c0-0.4,0-0.9,0.1-1.5s0.1-1.3,0.2-2.1
	c-0.4,0.9-0.8,1.6-1.1,2.2s-0.6,1-0.9,1.4L30,782.8h-1.6l-12.9-17.1c-0.4-0.6-0.8-1.2-1.2-1.8c-0.3-0.5-0.6-1.1-0.8-1.7
	c0.1,0.7,0.1,1.4,0.1,1.9s0.1,1.1,0.1,1.7V787H7.3z"/>
<path class="st0" d="M61.7,787L77,759.9h6L98.5,787h-7.1l-3.2-6H71.1l-3.1,6H61.7z M73.8,776.2h11.8l-5.8-11L73.8,776.2z"/>
<path class="st0" d="M107.2,787v-27.1h17.4c5,0,8.8,1.2,11.4,3.5c2.7,2.3,4,5.6,4,9.9c0,2.4-0.5,4.7-1.6,6.8c-1,2-2.5,3.6-4.4,4.8
	c-1.4,0.8-2.8,1.3-4.4,1.6c-2.2,0.4-4.5,0.5-6.7,0.5L107.2,787z M113.5,781.9h8.1c4.3,0,7.4-0.7,9.2-2c1.8-1.3,2.7-3.6,2.7-6.7
	c0-2.8-0.8-4.9-2.2-6.3s-3.7-2.1-6.7-2.1h-11.2L113.5,781.9z"/>
<path class="st0" d="M151.6,787v-27.1h6.3v10.5h19.6v-10.5h6.4V787h-6.4v-11.7h-19.6V787H151.6z"/>
<path class="st0" d="M204,759.9v22h18v-22h6.3v20.7c0,2.5-0.5,4.2-1.4,5c-0.9,0.9-2.7,1.4-5.4,1.4h-17.1c-2.6,0-4.4-0.5-5.3-1.3
	c-0.9-0.9-1.4-2.6-1.4-5v-20.7H204z"/>
<path class="st0" d="M265.5,764.6h-17.7v5.8h16.9c2.6,0,4.4,0.5,5.4,1.4s1.4,2.6,1.4,5v3.7c0,2.5-0.5,4.1-1.4,5
	c-0.9,0.9-2.7,1.4-5.4,1.5H248c-2.7,0-4.5-0.5-5.4-1.4c-0.9-0.9-1.4-2.6-1.4-5v-0.7l5.6-1.2v3.2h19.1v-6.2H249
	c-2.6,0-4.4-0.5-5.3-1.4c-0.9-0.9-1.4-2.6-1.4-5v-3c0-2.5,0.5-4.1,1.4-5s2.7-1.4,5.3-1.5h15.4c2.5,0,4.3,0.4,5.3,1.3
	s1.5,2.4,1.5,4.6v0.6l-5.6,1.3L265.5,764.6z"/>
<path class="st0" d="M309.4,787c-2.7,0-4.5-0.5-5.4-1.4c-0.9-0.9-1.4-2.6-1.4-5v-1.8c-0.1-1,0.2-1.9,0.6-2.8c0.7-1,1.7-1.7,2.8-2.3
	l5.5-3.3c-0.7-0.6-1.3-1.2-1.8-2c-0.4-0.6-0.6-1.4-0.5-2.1v-1.5c-0.2-1.5,0.4-2.9,1.5-3.9c1-0.7,2.7-1.1,5.2-1.1h5.5
	c2.6,0,4.4,0.4,5.3,1.2c0.9,0.8,1.4,2.2,1.4,4.3v1.7l-4.9,0.8v-3.6h-8.9v2l12.7,10.6l6.3-5.2l3.6,3.1l-6.2,5.2l8.5,7.2h-8.2
	l-4.5-3.8l-2.4,2.2c-0.6,0.5-1.3,1-2,1.3c-1,0.3-2,0.4-3,0.3L309.4,787z M307.9,782.3h12.5l2.5-2.2l-8.1-6.8l-6.9,4.3V782.3z"/>
<path class="st0" d="M370.2,787v-34.2h6.4l16.1,20.7l15.7-20.7h6.4V787h-7.4v-21.2c0-0.4,0-0.9,0.1-1.5s0.1-1.3,0.2-2.1
	c-0.4,0.9-0.8,1.6-1.1,2.2s-0.6,1-0.9,1.4l-12.8,17.1h-1.6l-12.9-17.1c-0.4-0.6-0.8-1.2-1.2-1.8c-0.3-0.5-0.6-1.1-0.8-1.7
	c0.1,0.7,0.1,1.4,0.1,1.9s0,1.1,0,1.7V787H370.2z"/>
<path class="st0" d="M424.5,787l15.3-27h6.1l15.5,27h-7.1l-3.3-6h-17.1l-3.1,6H424.5z M436.6,776.2h11.9l-5.8-11L436.6,776.2z"/>
<path class="st0" d="M470.1,787v-27.1h17.4c5,0,8.8,1.2,11.5,3.5c2.7,2.3,4,5.6,4,9.9c0,2.4-0.5,4.7-1.6,6.8c-1,2-2.5,3.6-4.4,4.8
	c-1.4,0.8-2.8,1.3-4.4,1.6c-2.2,0.4-4.5,0.5-6.7,0.5L470.1,787z M476.4,781.9h8.1c4.3,0,7.4-0.7,9.2-2c1.8-1.3,2.7-3.6,2.7-6.7
	c0-2.8-0.8-4.9-2.2-6.3s-3.7-2.1-6.6-2.1h-11.2V781.9z"/>
<path class="st0" d="M514.5,787v-27.1h6.3v10.5h19.7v-10.5h6.3V787h-6.3v-11.7h-19.6V787H514.5z"/>
<path class="st0" d="M566.9,759.9v22h17.9v-22h6.3v20.7c0,2.5-0.5,4.2-1.4,5c-0.9,0.9-2.7,1.4-5.3,1.4h-17.1c-2.6,0-4.4-0.5-5.3-1.3
	c-0.9-0.9-1.4-2.6-1.4-5v-20.7H566.9z"/>
<path class="st0" d="M628.4,764.6h-17.7v5.8h16.9c2.6,0,4.4,0.5,5.4,1.4s1.4,2.6,1.4,5v3.7c0,2.5-0.5,4.1-1.4,5
	c-0.9,0.9-2.7,1.4-5.4,1.5h-16.7c-2.7,0-4.5-0.5-5.4-1.4c-0.9-0.9-1.4-2.6-1.4-5v-0.7l5.5-1.2v3.2h19.1v-6.2h-16.9
	c-2.6,0-4.4-0.5-5.3-1.4c-0.9-0.9-1.4-2.6-1.4-5v-3c0-2.5,0.5-4.1,1.4-5c0.9-0.9,2.7-1.3,5.3-1.4h15.3c2.5,0,4.3,0.4,5.3,1.3
	s1.5,2.4,1.5,4.6v0.6l-5.6,1.3V764.6z"/>
</svg>
