<?xml version="1.0" encoding="UTF-8"?>
<svg id="Layer_1" data-name="Layer 1" xmlns="http://www.w3.org/2000/svg" viewBox="0 0 1024 1024">
  <defs>
    <style>
      .cls-1 {
        fill: #fff;
      }

      .cls-2 {
        fill: #333;
      }
    </style>
  </defs>
  <path d="m1023.94,1.25v938.73c-338.95,0-677.89-.01-1016.84.12-4.99,0-6.13-1.11-6.13-6.12.14-308.91.14-617.83,0-926.74,0-5,1.13-6.12,6.13-6.12,338.95.14,677.89.12,1016.84.12ZM511.67,909.52c158.81,0,317.62-.02,476.44.1,4.37,0,5.51-.99,5.51-5.45-.12-289.09-.11-578.19-.02-867.28,0-4.09-.97-5.26-5.18-5.26-316.62.1-633.25.09-949.87.1q-6.94,0-6.94,6.98c0,287.26,0,574.53,0,861.79q0,9.02,9.12,9.02c156.98,0,313.96,0,470.94,0Z"/>
  <path class="cls-1" d="m511.67,909.52c-156.98,0-313.96,0-470.94,0q-9.12,0-9.12-9.02c0-287.26,0-574.53,0-861.79q0-6.97,6.94-6.98c316.62,0,633.25,0,949.87-.1,4.21,0,5.18,1.17,5.18,5.26-.1,289.09-.1,578.19.02,867.28,0,4.46-1.14,5.46-5.51,5.45-158.81-.12-317.62-.1-476.44-.1Zm451.91-204.36c.24-1.17.41-1.62.41-2.06.01-91.04,0-182.08.07-273.11,0-2.27-.94-3.65-2.38-5.12-14.26-14.43-28.47-28.91-42.71-43.35-23.71-24.04-47.44-48.07-71.17-72.1-36.25-36.7-72.53-73.36-108.7-110.13-2.44-2.48-3.58-2.15-5.62.29-5.91,7.08-12.05,13.97-18.13,20.9-16.94,19.28-33.96,38.49-50.83,57.84-24.14,27.68-48.06,55.55-72.29,83.14-15.78,17.96-31.36,36.09-47.35,53.86-10.52,11.69-20.71,23.72-30.94,35.69-2.16,2.53-3.02,1.5-4.41-.02-5.59-6.11-11.07-12.3-16.7-18.37-19.14-20.65-38.33-41.26-57.5-61.88-25.02-26.92-50.03-53.85-75.05-80.78-8.69-9.35-17.4-18.68-26.05-28.06-19.19-20.8-38.39-41.58-57.46-62.49-2.24-2.46-3.7-2.37-5.76-.1-7.36,8.15-14.64,16.38-22.2,24.33-12.57,13.21-24.84,26.7-37.22,40.08-12.73,13.74-25.45,27.49-38.17,41.24-12.5,13.51-25.04,26.97-37.52,40.49-12.35,13.38-24.84,26.61-37.1,40.08-11.07,12.16-22.49,24-33.95,35.8-2.74,2.82-3.89,5.6-3.89,9.58.12,89.21.09,178.41.09,267.62v4.97c7.3-5.52,12.16-12.35,17.82-18.34,11.7-12.38,22.82-25.32,34.62-37.6,9.74-10.14,19.18-20.56,28.74-30.86,7.03-7.57,13.93-15.27,21.02-22.77,9.77-10.34,19.3-20.9,29.05-31.26,7.19-7.65,14.12-15.54,21.33-23.15,9.48-10,18.8-20.14,28.18-30.23,9.36-10.06,18.83-20.02,27.96-30.28,3.22-3.62,5.05-3.47,8.18.13,9.5,10.9,19.06,21.79,29.2,32.1,10.12,10.29,19.53,21.21,29.48,31.64,11.32,11.86,22.12,24.2,33.26,36.22,9.8,10.57,19.82,20.95,29.65,31.5,12.4,13.31,24.69,26.7,37.04,40.06,12.68,13.72,25.39,27.42,38.05,41.16,11.23,12.18,22.46,24.35,33.55,36.66,2.55,2.82,4.18,3.41,6.84.03,6.61-8.38,13.54-16.58,20.72-24.41,12.41-13.53,24.31-27.49,36.44-41.24,19.14-21.7,37.92-43.71,56.95-65.5,20.34-23.31,40.82-46.5,61.19-69.78,14.28-16.31,28.55-32.61,42.67-49.05,2.48-2.89,4.14-3.6,6.7-.26,2.39,3.13,5.04,6.1,7.82,8.89,17.48,17.5,35.12,34.84,52.55,52.39,25.78,25.97,51.42,52.06,77.12,78.11,28.62,29,57.25,58,86.4,87.52Zm-451.05,179.9c148.82,0,297.63-.02,446.45.1,4.15,0,5.16-.97,5.13-5.13-.2-30.12-.27-60.25.04-90.37.06-5.52-1.8-9.28-5.47-12.97-24.95-25.14-49.8-50.38-74.68-75.59-25.94-26.28-51.84-52.58-77.82-78.81-22.24-22.46-44.68-44.73-66.75-67.36-3.05-3.13-4.16-2.36-6.41.25-5.72,6.62-11.71,13-17.45,19.6-23.68,27.23-47.24,54.56-70.96,81.76-19.57,22.43-39.37,44.66-58.94,67.09-23.5,26.94-46.91,53.95-70.2,81.06-2.67,3.11-3.98,3.41-6.91.22-27.74-30.24-55.64-60.32-83.51-90.44-20.91-22.6-41.82-45.2-62.77-67.76-27.49-29.6-55.02-59.18-82.55-88.75-5.85-6.28-5.84-6.21-11.87.15-7,7.38-14.2,14.58-21.11,22.04-10.68,11.55-20.93,23.52-31.86,34.83-6.25,6.48-12.12,13.3-18.48,19.7-10.26,10.33-19.61,21.57-29.46,32.32-11.95,13.05-24.03,25.98-36.05,38.97-12.92,13.94-25.72,28-38.8,41.79-9.71,10.23-19.27,20.58-28.76,31.01-1.72,1.89-2.36,3.53-2.35,5.93.06,31.62.14,63.24-.08,94.86-.03,4.59,1.19,5.61,5.67,5.6,148.65-.12,297.3-.1,445.95-.1Zm451.35-535.41c.05-.96.12-1.63.12-2.29,0-95.7-.03-191.4.13-287.1,0-4.53-2.17-4.1-5.09-4.1-297.65.02-595.3.03-892.96-.08-4.11,0-5.16.9-5.15,5.1.14,94.37.1,188.74.14,283.11,0,1.35-.69,2.92.91,4.47.79-.94,1.5-1.85,2.28-2.7,24.61-26.61,49.21-53.23,73.85-79.81,16.35-17.64,32.58-35.41,49.21-52.78,10.52-10.99,20.93-22.12,31.18-33.33,17.47-19.11,35.21-37.97,52.58-57.16,2.28-2.52,3.52-2.96,5.93-.09,5.02,6.01,10.43,11.71,15.73,17.48,8.34,9.08,16.7,18.15,25.1,27.17,5.63,6.04,11.59,11.78,16.96,18.04,6.41,7.48,13.36,14.43,20.03,21.64,6.03,6.51,12.15,12.92,18.14,19.47,10.21,11.16,20.07,22.65,30.63,33.46,6.33,6.48,12.2,13.36,18.56,19.82,9.99,10.15,19.02,21.24,28.82,31.58,8.58,9.05,17.04,18.2,25.43,27.43,10.86,11.95,22.2,23.46,33.2,35.27,1.94,2.09,2.95,2.12,4.84-.07,25.41-29.43,50.73-58.95,76.44-88.12,23.07-26.17,46.02-52.44,68.83-78.83,24.67-28.54,49.64-56.83,74.44-85.26,1.58-1.82,2.67-2.27,4.06.09.66,1.11,1.63,2.06,2.54,3.01,14.58,15.22,30.01,29.58,44.44,44.99,26.45,28.27,54.99,54.51,81.57,82.7,15.63,16.57,32.24,32.22,48.37,48.32,15.04,15.02,29.05,31.05,44.46,45.71,1.12,1.07,1.83,2.8,4.28,2.86Z"/>
  <path class="cls-2" d="m963.58,705.16c-29.15-29.53-57.77-58.52-86.4-87.52-25.7-26.04-51.35-52.14-77.12-78.11-17.43-17.55-35.06-34.89-52.55-52.39-2.79-2.79-5.43-5.76-7.82-8.89-2.56-3.34-4.22-2.63-6.7.26-14.12,16.44-28.4,32.75-42.67,49.05-20.38,23.28-40.85,46.47-61.19,69.78-19.03,21.8-37.81,43.8-56.95,65.5-12.13,13.76-24.04,27.71-36.44,41.24-7.18,7.83-14.11,16.03-20.72,24.41-2.66,3.38-4.3,2.79-6.84-.03-11.09-12.3-22.33-24.48-33.55-36.66-12.66-13.74-25.37-27.44-38.05-41.16-12.34-13.35-24.64-26.75-37.04-40.06-9.83-10.55-19.85-20.93-29.65-31.5-11.14-12.02-21.95-24.37-33.26-36.22-9.95-10.43-19.37-21.35-29.48-31.64-10.13-10.31-19.7-21.19-29.2-32.1-3.13-3.6-4.97-3.75-8.18-.13-9.13,10.26-18.61,20.22-27.96,30.28-9.38,10.09-18.7,20.23-28.18,30.23-7.21,7.61-14.14,15.5-21.33,23.15-9.74,10.36-19.27,20.92-29.05,31.26-7.09,7.5-13.99,15.2-21.02,22.77-9.56,10.3-19,20.72-28.74,30.86-11.8,12.28-22.92,25.22-34.62,37.6-5.66,5.99-10.52,12.82-17.82,18.34v-4.97c0-89.21.03-178.42-.09-267.62,0-3.98,1.15-6.76,3.89-9.58,11.46-11.79,22.88-23.63,33.95-35.8,12.25-13.47,24.75-26.7,37.1-40.08,12.48-13.52,25.03-26.99,37.52-40.49,12.72-13.75,25.45-27.49,38.17-41.24,12.39-13.38,24.65-26.87,37.22-40.08,7.57-7.95,14.85-16.18,22.2-24.33,2.05-2.27,3.51-2.36,5.76.1,19.07,20.9,38.27,41.69,57.46,62.49,8.65,9.38,17.37,18.71,26.05,28.06,25.02,26.93,50.03,53.85,75.05,80.78,19.17,20.63,38.36,41.23,57.5,61.88,5.63,6.07,11.11,12.27,16.7,18.37,1.39,1.52,2.25,2.55,4.41.02,10.23-11.97,20.42-24,30.94-35.69,16-17.78,31.58-35.9,47.35-53.86,24.23-27.59,48.15-55.46,72.29-83.14,16.87-19.34,33.9-38.55,50.83-57.84,6.09-6.93,12.22-13.82,18.13-20.9,2.04-2.44,3.17-2.77,5.62-.29,36.17,36.78,72.45,73.44,108.7,110.13,23.73,24.03,47.46,48.06,71.17,72.1,14.25,14.44,28.45,28.92,42.71,43.35,1.44,1.46,2.38,2.85,2.38,5.12-.07,91.04-.06,182.08-.07,273.11,0,.44-.17.89-.41,2.06Z"/>
  <path class="cls-2" d="m512.53,885.06c-148.65,0-297.3-.02-445.95.1-4.47,0-5.7-1.01-5.67-5.6.22-31.62.14-63.24.08-94.86,0-2.4.63-4.04,2.35-5.93,9.49-10.43,19.06-20.78,28.76-31.01,13.08-13.79,25.88-27.84,38.8-41.79,12.03-12.98,24.1-25.92,36.05-38.97,9.85-10.75,19.19-21.99,29.46-32.32,6.36-6.4,12.22-13.22,18.48-19.7,10.93-11.31,21.18-23.28,31.86-34.83,6.9-7.47,14.11-14.66,21.11-22.04,6.04-6.36,6.03-6.43,11.87-.15,27.53,29.57,55.05,59.14,82.55,88.75,20.95,22.56,41.86,45.16,62.77,67.76,27.87,30.12,55.78,60.2,83.51,90.44,2.93,3.19,4.24,2.89,6.91-.22,23.3-27.11,46.71-54.12,70.2-81.06,19.57-22.43,39.37-44.66,58.94-67.09,23.72-27.19,47.28-54.52,70.96-81.76,5.74-6.6,11.73-12.98,17.45-19.6,2.25-2.61,3.36-3.38,6.41-.25,22.07,22.63,44.51,44.9,66.75,67.36,25.98,26.23,51.88,52.54,77.82,78.81,24.88,25.21,49.73,50.45,74.68,75.59,3.66,3.69,5.52,7.45,5.47,12.97-.32,30.12-.24,60.24-.04,90.37.03,4.16-.98,5.13-5.13,5.13-148.82-.12-297.63-.1-446.45-.1Z"/>
  <path class="cls-2" d="m963.88,349.65c-2.45-.06-3.16-1.79-4.28-2.86-15.42-14.65-29.42-30.69-44.46-45.71-16.13-16.1-32.75-31.75-48.37-48.32-26.58-28.19-55.12-54.43-81.57-82.7-14.42-15.42-29.85-29.78-44.44-44.99-.91-.95-1.88-1.9-2.54-3.01-1.39-2.36-2.48-1.9-4.06-.09-24.8,28.44-49.77,56.72-74.44,85.26-22.81,26.39-45.76,52.66-68.83,78.83-25.71,29.17-51.03,58.69-76.44,88.12-1.89,2.19-2.9,2.16-4.84.07-11.01-11.81-22.35-23.32-33.2-35.27-8.39-9.23-16.85-18.38-25.43-27.43-9.8-10.34-18.83-21.43-28.82-31.58-6.36-6.46-12.23-13.34-18.56-19.82-10.56-10.81-20.42-22.31-30.63-33.46-5.99-6.54-12.11-12.96-18.14-19.47-6.68-7.21-13.63-14.16-20.03-21.64-5.36-6.26-11.33-12-16.96-18.04-8.4-9.02-16.76-18.09-25.1-27.17-5.3-5.78-10.71-11.47-15.73-17.48-2.4-2.87-3.65-2.43-5.93.09-17.37,19.19-35.11,38.05-52.58,57.16-10.24,11.21-20.66,22.33-31.18,33.33-16.63,17.38-32.86,35.14-49.21,52.78-24.64,26.58-49.24,53.2-73.85,79.81-.78.84-1.48,1.75-2.28,2.7-1.6-1.55-.91-3.12-.91-4.47-.04-94.37,0-188.74-.14-283.11,0-4.2,1.05-5.1,5.15-5.1,297.65.11,595.3.1,892.96.08,2.92,0,5.1-.42,5.09,4.1-.16,95.7-.12,191.4-.13,287.1,0,.66-.07,1.32-.12,2.29Z"/>
  <path class="cls-1" d="m706.76,974.98c2.94,5.49,5.78,10.77,8.87,16.53h-18.5c3.66-5.33,5.53-11.43,9.63-16.53Z"/>
  <path class="cls-1" d="m137.4,991.72h-17.77c1.71-6.27,6.29-10.91,8.67-17.74,3.26,6.35,6,11.71,9.1,17.74Z"/>
  <g>
    <path class="cls-2" d="m12.91,1009.04v-54.49h10.2l25.65,32.98,25.01-32.98h10.2v54.49h-11.79v-33.78c0-.64,0-1.43.16-2.39s.16-2.07.32-3.35c-.64,1.43-1.27,2.55-1.75,3.51s-.96,1.59-1.43,2.23l-20.39,27.08h-2.55l-20.55-27.24c-.64-.96-1.27-1.91-1.91-2.87-.48-.8-.96-1.75-1.27-2.71.16,1.12.16,2.23.16,3.03s.16,1.75.16,2.71v33.78h-10.2Z"/>
    <path class="cls-2" d="m99.58,1009.04l24.38-43.18h9.56l24.69,43.18h-11.31l-5.1-9.56h-27.24l-4.94,9.56h-10.04Zm19.28-17.21h18.8l-9.24-17.53-9.56,17.53Z"/>
    <path class="cls-2" d="m172.07,1009.04v-43.18h27.72c7.97,0,14.02,1.91,18.16,5.58,4.3,3.66,6.37,8.92,6.37,15.77,0,3.82-.8,7.49-2.55,10.83-1.59,3.19-3.98,5.74-7.01,7.65-2.23,1.27-4.46,2.07-7.01,2.55-3.51.64-7.17.8-10.67.8h-25.01Zm10.04-8.13h12.9c6.85,0,11.79-1.12,14.66-3.19,2.87-2.07,4.3-5.74,4.3-10.67,0-4.46-1.27-7.81-3.51-10.04-2.23-2.23-5.89-3.35-10.67-3.35h-17.84l.16,27.24Z"/>
    <path class="cls-2" d="m242.81,1009.04v-43.18h10.04v16.73h31.23v-16.73h10.2v43.18h-10.2v-18.64h-31.23v18.64h-10.04Z"/>
    <path class="cls-2" d="m326.29,965.87v35.05h28.68v-35.05h10.04v32.98c0,3.98-.8,6.69-2.23,7.97-1.43,1.43-4.3,2.23-8.6,2.23h-27.24c-4.14,0-7.01-.8-8.44-2.07-1.43-1.43-2.23-4.14-2.23-7.97v-32.98h10.04v-.16Z"/>
    <path class="cls-2" d="m424.27,973.35h-28.2v9.24h26.93c4.14,0,7.01.8,8.6,2.23,1.59,1.43,2.23,4.14,2.23,7.97v5.89c0,3.98-.8,6.53-2.23,7.97-1.43,1.43-4.3,2.23-8.6,2.39h-26.61c-4.3,0-7.17-.8-8.6-2.23s-2.23-4.14-2.23-7.97v-1.12l8.92-1.91v5.1h30.43v-9.88h-26.93c-4.14,0-7.01-.8-8.44-2.23-1.43-1.43-2.23-4.14-2.23-7.97v-4.78c0-3.98.8-6.53,2.23-7.97s4.3-2.23,8.44-2.39h24.54c3.98,0,6.85.64,8.44,2.07,1.59,1.43,2.39,3.82,2.39,7.33v.96l-8.92,2.07-.16-4.78Z"/>
    <path class="cls-2" d="m494.21,1009.04c-4.3,0-7.17-.8-8.6-2.23s-2.23-4.14-2.23-7.97v-2.87c-.16-1.59.32-3.03.96-4.46,1.12-1.59,2.71-2.71,4.46-3.66l8.76-5.26c-1.12-.96-2.07-1.91-2.87-3.19-.64-.96-.96-2.23-.8-3.35v-2.39c-.32-2.39.64-4.62,2.39-6.21,1.59-1.12,4.3-1.75,8.28-1.75h8.76c4.14,0,7.01.64,8.44,1.91s2.23,3.51,2.23,6.85v2.71l-7.81,1.27v-5.74h-14.18v3.19l20.23,16.89,10.04-8.28,5.74,4.94-9.88,8.28,13.54,11.47h-13.06l-7.17-6.05-3.82,3.51c-.96.8-2.07,1.59-3.19,2.07-1.59.48-3.19.64-4.78.48l-15.45-.16Zm-2.39-7.49h19.91l3.98-3.51-12.9-10.83-10.99,6.85v7.49Z"/>
    <path class="cls-2" d="m591.08,1009.04v-54.49h10.2l25.65,32.98,25.01-32.98h10.2v54.49h-11.79v-33.78c0-.64,0-1.43.16-2.39s.16-2.07.32-3.35c-.64,1.43-1.27,2.55-1.75,3.51s-.96,1.59-1.43,2.23l-20.39,27.24h-2.55l-20.55-27.24c-.64-.96-1.27-1.91-1.91-2.87-.48-.8-.96-1.75-1.27-2.71.16,1.12.16,2.23.16,3.03v36.32h-10.04Z"/>
    <path class="cls-2" d="m677.59,1009.04l24.38-43.02h9.72l24.69,43.02h-11.31l-5.26-9.56h-27.24l-4.94,9.56h-10.04Zm19.28-17.21h18.96l-9.24-17.53-9.72,17.53Z"/>
    <path class="cls-2" d="m750.24,1009.04v-43.18h27.72c7.97,0,14.02,1.91,18.32,5.58,4.3,3.66,6.37,8.92,6.37,15.77,0,3.82-.8,7.49-2.55,10.83-1.59,3.19-3.98,5.74-7.01,7.65-2.23,1.27-4.46,2.07-7.01,2.55-3.51.64-7.17.8-10.67.8h-25.17Zm10.04-8.13h12.9c6.85,0,11.79-1.12,14.66-3.19,2.87-2.07,4.3-5.74,4.3-10.67,0-4.46-1.27-7.81-3.51-10.04s-5.89-3.35-10.52-3.35h-17.84v27.24Z"/>
    <path class="cls-2" d="m820.98,1009.04v-43.18h10.04v16.73h31.39v-16.73h10.04v43.18h-10.04v-18.64h-31.23v18.64h-10.2Z"/>
    <path class="cls-2" d="m904.46,965.87v35.05h28.52v-35.05h10.04v32.98c0,3.98-.8,6.69-2.23,7.97-1.43,1.43-4.3,2.23-8.44,2.23h-27.24c-4.14,0-7.01-.8-8.44-2.07-1.43-1.43-2.23-4.14-2.23-7.97v-32.98h10.04v-.16Z"/>
    <path class="cls-2" d="m1002.44,973.35h-28.2v9.24h26.93c4.14,0,7.01.8,8.6,2.23s2.23,4.14,2.23,7.97v5.89c0,3.98-.8,6.53-2.23,7.97s-4.3,2.23-8.6,2.39h-26.61c-4.3,0-7.17-.8-8.6-2.23s-2.23-4.14-2.23-7.97v-1.12l8.76-1.91v5.1h30.43v-9.88h-26.93c-4.14,0-7.01-.8-8.44-2.23-1.43-1.43-2.23-4.14-2.23-7.97v-4.78c0-3.98.8-6.53,2.23-7.97s4.3-2.07,8.44-2.23h24.38c3.98,0,6.85.64,8.44,2.07s2.39,3.82,2.39,7.33v.96l-8.92,2.07v-4.94h.16Z"/>
  </g>
</svg>