<svg id="Layer_1" data-name="Layer 1" xmlns="http://www.w3.org/2000/svg" viewBox="0 0 641.58 805.39"><defs><style>.cls-1{fill:#333;}.cls-2{fill:#231f20;}</style></defs><polygon class="cls-1" points="320.54 573.88 453.1 370.57 587.71 553.13 587.71 332.81 453.1 150.25 320.54 353.55 179.81 150.25 53.88 332.18 53.88 552.51 179.81 370.57 320.54 573.88"/><polygon class="cls-1" points="320.54 634.49 179.81 431.19 53.88 613.13 53.88 695.11 587.71 695.11 587.71 613.75 453.1 431.19 320.54 634.49"/><polygon class="cls-1" points="320.54 292.93 453.1 89.63 587.71 272.19 587.71 39.23 53.88 39.23 53.88 271.56 179.81 89.63 320.54 292.93"/><path d="M641.16,734.34H.42V0H641.16ZM21.68,713.09H619.91V21.25H21.68Z"/><path class="cls-2" d="M7.3,787V752.78h6.43l16.1,20.66,15.74-20.66h6.37V787H44.57V765.84c0-.41,0-.92.08-1.55s.12-1.32.21-2.1c-.43.88-.81,1.61-1.13,2.18s-.62,1-.88,1.41L30,782.84H28.44L15.57,765.71a20.43,20.43,0,0,1-1.21-1.82,12.22,12.22,0,0,1-.82-1.67c.06.71.11,1.36.14,1.94s.05,1.14.05,1.68V787Z"/><path class="cls-2" d="M61.66,787,77,759.9H83L98.53,787H91.47L88.22,781H71.07L67.93,787Zm12.1-10.8H85.61l-5.84-11Z"/><path class="cls-2" d="M107.23,787V759.9h17.4q7.44,0,11.45,3.48t4,9.88a14.7,14.7,0,0,1-1.56,6.82,11.78,11.78,0,0,1-4.4,4.77,12.8,12.8,0,0,1-4.39,1.6,37.2,37.2,0,0,1-6.71.5Zm6.29-5.09h8.14q6.5,0,9.21-2c1.81-1.34,2.71-3.57,2.71-6.67,0-2.77-.75-4.86-2.25-6.29s-3.72-2.13-6.65-2.13H113.52Z"/><path class="cls-2" d="M151.62,787V759.9h6.3v10.49h19.65V759.9h6.35V787h-6.35V775.31H157.92V787Z"/><path class="cls-2" d="M204,759.9v22H222v-22h6.27v20.65q0,3.72-1.38,5.05T221.53,787H204.44q-3.91,0-5.31-1.35t-1.4-5.05V759.9Z"/><path class="cls-2" d="M265.51,764.64h-17.7v5.8h16.86c2.64,0,4.43.46,5.36,1.36s1.4,2.58,1.4,5v3.71q0,3.69-1.4,5T264.67,787H248q-4,0-5.36-1.36t-1.39-5v-.74l5.55-1.15v3.2h19.11v-6.17H249q-3.94,0-5.32-1.36t-1.38-5v-3q0-3.69,1.38-5T249,759.9h15.35c2.54,0,4.3.44,5.26,1.31s1.45,2.41,1.45,4.63v.56l-5.56,1.31Z"/><path class="cls-2" d="M309.35,787q-4,0-5.38-1.36c-.94-.9-1.4-2.58-1.4-5v-1.76a5.4,5.4,0,0,1,.6-2.77,8.13,8.13,0,0,1,2.75-2.28l5.5-3.3a7.67,7.67,0,0,1-1.75-2,4.13,4.13,0,0,1-.55-2.11v-1.51A4.48,4.48,0,0,1,310.6,761q1.48-1.12,5.22-1.13h5.45q3.92,0,5.32,1.18c.94.78,1.41,2.21,1.41,4.27V767l-4.89.82V764.2h-8.85v1.95L327,776.74l6.27-5.25,3.58,3.1-6.24,5.17,8.55,7.19h-8.24l-4.46-3.76-2.4,2.15a6.82,6.82,0,0,1-2,1.26,9.72,9.72,0,0,1-3,.35Zm-1.49-4.71H320.4l2.51-2.15-8.11-6.75-6.94,4.27Z"/><path class="cls-2" d="M370.16,787V752.78h6.43l16.1,20.66,15.74-20.66h6.36V787h-7.37V765.84c0-.41,0-.92.08-1.55s.13-1.32.22-2.1c-.44.88-.81,1.61-1.14,2.18s-.61,1-.87,1.41l-12.83,17.06H391.3l-12.87-17.13a20.43,20.43,0,0,1-1.21-1.82,12.22,12.22,0,0,1-.82-1.67c.06.71.11,1.36.14,1.94s0,1.14,0,1.68V787Z"/><path class="cls-2" d="M424.52,787l15.3-27.05h6.06L461.39,787h-7.06L451.08,781H433.93L430.79,787Zm12.1-10.8h11.85l-5.84-11Z"/><path class="cls-2" d="M470.09,787V759.9h17.4q7.44,0,11.45,3.48t4,9.88a14.7,14.7,0,0,1-1.56,6.82,11.85,11.85,0,0,1-4.4,4.77,12.8,12.8,0,0,1-4.39,1.6,37.2,37.2,0,0,1-6.71.5Zm6.29-5.09h8.14q6.5,0,9.21-2c1.81-1.34,2.71-3.57,2.71-6.67,0-2.77-.75-4.86-2.25-6.29s-3.72-2.13-6.65-2.13H476.38Z"/><path class="cls-2" d="M514.48,787V759.9h6.3v10.49h19.65V759.9h6.34V787h-6.34V775.31H520.78V787Z"/><path class="cls-2" d="M566.89,759.9v22h17.93v-22h6.27v20.65q0,3.72-1.38,5.05T584.39,787H567.3q-3.91,0-5.31-1.35t-1.4-5.05V759.9Z"/><path class="cls-2" d="M628.37,764.64h-17.7v5.8h16.86c2.64,0,4.43.46,5.36,1.36s1.39,2.58,1.39,5v3.71q0,3.69-1.39,5T627.53,787H610.82q-4,0-5.36-1.36t-1.39-5v-.74l5.55-1.15v3.2h19.11v-6.17H611.87q-3.95,0-5.32-1.36t-1.38-5v-3q0-3.69,1.38-5t5.32-1.36h15.35c2.54,0,4.3.44,5.26,1.31s1.45,2.41,1.45,4.63v.56l-5.56,1.31Z"/></svg>